<?xml version="1.0" encoding="utf-8"?>
<!-- Generator: Adobe Illustrator 23.0.5, SVG Export Plug-In . SVG Version: 6.00 Build 0)  -->
<svg version="1.1" id="Layer_1" xmlns="http://www.w3.org/2000/svg" xmlns:xlink="http://www.w3.org/1999/xlink" x="0px" y="0px"
	 viewBox="0 0 560 420" style="enable-background:new 0 0 560 420;" xml:space="preserve">
<style type="text/css">
	.st0{display:none;fill:#914EDA;}
	.st1{opacity:0.2;}
	.st2{fill:#E8EEF6;}
	.st3{fill:#B5ADEA;}
	.st4{fill:#ECE9FF;}
	.st5{opacity:0.1;}
	.st6{fill:#E53399;}
	.st7{fill:#FF76C4;}
	.st8{fill:#73C139;}
	.st9{fill:#4D9B12;}
	.st10{fill:url(#SVGID_1_);}
	.st11{fill:#FFE85F;}
	.st12{fill:url(#SVGID_2_);}
	.st13{fill:url(#SVGID_3_);}
	.st14{fill:#95C4DE;}
	.st15{fill:#DEF6FF;}
	.st16{fill:url(#SVGID_4_);}
	.st17{fill:#A9D6EA;}
	.st18{fill:#72B5D3;}
	.st19{fill:url(#SVGID_5_);}
	.st20{fill:#FFFFFE;}
	.st21{fill:#ED8001;}
	.st22{fill:#58361A;}
	.st23{fill:#F79534;}
	.st24{fill:#FACD00;}
	.st25{fill:#ABBEC5;}
	.st26{fill:#BFD4DC;}
	.st27{fill:#36A0B7;}
	.st28{fill:#3190A4;}
	.st29{fill:#3FBAD4;}
	.st30{fill:#F8F9FD;}
	.st31{fill:url(#SVGID_6_);}
	.st32{fill:#29BADF;}
	.st33{fill:url(#SVGID_7_);}
	.st34{fill:url(#SVGID_8_);}
	.st35{opacity:0.5;fill:#DEF6FF;}
	.st36{fill:url(#SVGID_9_);}
	.st37{enable-background:new    ;}
	.st38{fill:#CACACA;}
	.st39{fill:#B8B8B8;}
	.st40{fill:#96C4FF;}
	.st41{fill:#B4E3ED;}
	.st42{fill:#EEFAFE;}
	.st43{fill:#FFFFFF;}
	.st44{fill:#CADFE8;}
	.st45{fill:#EFB185;}
	.st46{fill:#AFCED8;}
	.st47{fill:#111114;}
	.st48{fill:#511DD8;}
	.st49{fill:#632BEE;}
	.st50{fill:#DD9569;}
	.st51{fill:#E6A376;}
	.st52{fill:#221101;}
	.st53{fill:#341C09;}
	.st54{fill:#DEF0F9;}
	.st55{fill:#E1BB00;}
	.st56{fill:#FFDF02;}
	.st57{fill:#EA49BD;}
	.st58{fill:#FF61CB;}
</style>
<path class="st0" d="M-264.77,415.04l152.08,87.81h217.47V174.42l-369.7,214.85C-277.16,396.38-277.1,407.92-264.77,415.04z"/>
<g>
	<g class="st1">
		<polygon points="521.92,277.99 286.78,414.65 50.07,277.99 285.22,141.34 		"/>
	</g>
	<g>
		<g>
			<polygon class="st2" points="540.07,217.3 539.99,243.93 286.76,391.1 286.83,364.47 			"/>
		</g>
	</g>
	<g>
		<polygon class="st3" points="286.83,364.47 286.76,391.1 31.84,243.92 31.92,217.3 		"/>
	</g>
	<g>
		<polygon class="st4" points="540.07,217.3 286.83,364.47 31.92,217.3 285.16,70.14 		"/>
	</g>
</g>
<g>
	<g>
		<g>
			<g class="st5">
				<g>
					<path d="M159.47,163.43c-10.42,6.01-10.45,15.74-0.14,21.73c10.32,6.01,27.08,6.01,37.49-0.02
						c10.39-5.99,10.43-15.7,0.12-21.69C186.63,157.46,169.84,157.44,159.47,163.43z"/>
				</g>
			</g>
			<g>
				<g>
					<path class="st6" d="M157.17,123.79c-8.02,4.63-8.06,12.14-0.09,16.77c7.98,4.63,20.92,4.63,28.95,0
						c8.03-4.64,8.07-12.14,0.1-16.77C178.16,119.16,165.19,119.16,157.17,123.79z"/>
				</g>
				<path class="st7" d="M157.07,140.56c7.98,4.63,20.92,4.63,28.95,0c8.03-4.64,8.07-12.14,0.1-16.77
					c-7.96-4.63-20.92-4.63-28.95,0C149.14,128.43,149.11,135.93,157.07,140.56z M159.78,125.3c6.58-3.8,17.22-3.79,23.75,0
					c6.54,3.8,6.51,9.96-0.08,13.76c-6.58,3.8-17.21,3.8-23.75,0C153.17,135.26,153.2,129.1,159.78,125.3z"/>
				<g>
					<path class="st8" d="M183.5,102.18c0.01,0.01,0.01,0.02,0.01,0.04c0.01,0.07,0.04,0.14,0.07,0.21
						c0.01,0.02,0.01,0.03,0.02,0.05c0.04,0.06,0.09,0.15,0.15,0.21c0.04,0.05,0.1,0.1,0.14,0.14c0.04,0.05,0.08,0.08,0.12,0.11
						c0.19,0.14,0.41,0.26,0.64,0.36c0.03,0.01,0.07,0.03,0.11,0.04c0.24,0.08,0.49,0.15,0.74,0.19c0.02,0,0.02,0,0.03,0
						c0.27,0.04,0.55,0.05,0.82,0.02c0.01,0,0.02,0,0.03-0.01c0.27-0.03,0.53-0.08,0.75-0.18c0.47-0.19,0.73-0.49,0.77-0.83
						l-7.86,59.75c-0.04,0.33-0.31,0.63-0.77,0.82c-0.11,0.05-0.23,0.08-0.34,0.11c-0.09,0.02-0.19,0.04-0.29,0.05
						c-0.04,0.01-0.09,0.01-0.13,0.01c-0.01,0-0.02,0-0.03,0c-0.02,0-0.05,0.01-0.07,0.01c-0.07,0-0.15,0.01-0.22,0.01l0-0.02l0,0
						l0,0.02c-0.07,0-0.14,0-0.22,0c-0.08,0-0.15-0.01-0.23-0.02c-0.02,0-0.05-0.01-0.08-0.01c-0.01,0-0.02,0-0.03,0
						c-0.04,0-0.08-0.02-0.11-0.02c-0.08-0.01-0.16-0.03-0.24-0.05c-0.09-0.02-0.18-0.04-0.28-0.08c-0.03-0.01-0.07-0.03-0.11-0.05
						c-0.04-0.01-0.08-0.03-0.11-0.04c-0.06-0.02-0.13-0.05-0.19-0.08c-0.17-0.07-0.31-0.18-0.45-0.28c0-0.01-0.02-0.01-0.02-0.02
						c-0.04-0.03-0.06-0.06-0.09-0.09c-0.05-0.04-0.11-0.09-0.15-0.14c0-0.01-0.01-0.01-0.01-0.01c-0.04-0.06-0.08-0.11-0.12-0.17
						c-0.01-0.01-0.01-0.02-0.02-0.04c-0.01-0.01-0.02-0.02-0.02-0.04c-0.01-0.02-0.02-0.04-0.04-0.07
						c-0.01-0.04-0.03-0.08-0.04-0.13c0,0,0-0.01,0-0.02c-0.01-0.01-0.01-0.02-0.01-0.03c0-0.03-0.01-0.05-0.01-0.08
						c0-0.04,0-0.09,0.01-0.13c0-0.01,0-0.01,0-0.02l7.86-59.74C183.49,102.03,183.49,102.1,183.5,102.18z"/>
					<g>
						<path class="st9" d="M184.28,101.13c-0.93,0.39-1.05,1.19-0.26,1.8c0.79,0.62,2.19,0.81,3.12,0.42
							c0.93-0.38,1.04-1.19,0.25-1.81C186.6,100.94,185.21,100.74,184.28,101.13z"/>
					</g>
				</g>
				<g>
					<path class="st8" d="M170.67,99.4c0,0.01,0,0.02,0,0.04c0.02,0.07,0.04,0.14,0.08,0.21c0.01,0.01,0.02,0.03,0.02,0.04
						c0.04,0.07,0.09,0.14,0.15,0.21c0.04,0.05,0.1,0.1,0.14,0.14c0.04,0.04,0.08,0.08,0.13,0.11c0.19,0.14,0.4,0.26,0.63,0.35
						c0.04,0.01,0.07,0.03,0.1,0.04c0.24,0.08,0.5,0.15,0.75,0.18c0.01,0,0.02,0,0.03,0c0.27,0.04,0.55,0.04,0.81,0.03
						c0.02,0,0.02,0,0.03,0c0.27-0.04,0.53-0.09,0.75-0.18c0.47-0.2,0.73-0.5,0.78-0.82l-7.86,59.74c-0.05,0.33-0.31,0.63-0.78,0.82
						c-0.11,0.05-0.22,0.08-0.34,0.11c-0.1,0.02-0.19,0.04-0.28,0.05c-0.05,0-0.09,0.01-0.14,0.01c-0.01,0.01-0.02,0.01-0.03,0.01
						c-0.02,0-0.05,0.01-0.07,0.01c-0.07,0-0.15,0.01-0.23,0.01l0.01-0.03l0,0l-0.01,0.03c-0.07,0-0.14,0-0.22,0
						c-0.08,0-0.15-0.01-0.22-0.02c-0.02,0-0.06,0-0.08-0.01c-0.01,0-0.03,0-0.03,0c-0.04-0.01-0.08-0.01-0.12-0.01
						c-0.08-0.01-0.16-0.03-0.24-0.05c-0.09-0.02-0.19-0.05-0.28-0.08c-0.04-0.01-0.08-0.04-0.12-0.05
						c-0.03-0.01-0.07-0.02-0.1-0.04c-0.07-0.03-0.13-0.05-0.18-0.07c-0.17-0.08-0.32-0.17-0.45-0.28
						c-0.01-0.01-0.02-0.01-0.03-0.02c-0.04-0.03-0.07-0.06-0.1-0.1c-0.05-0.04-0.1-0.09-0.15-0.14c0,0,0-0.01-0.01-0.01
						c-0.05-0.05-0.09-0.11-0.12-0.17c-0.01-0.01-0.01-0.03-0.02-0.04c-0.01-0.01-0.01-0.03-0.02-0.04
						c-0.01-0.03-0.02-0.04-0.03-0.06c-0.02-0.05-0.04-0.09-0.05-0.14c-0.01-0.01-0.01-0.01-0.01-0.02c0-0.01,0-0.02,0-0.03
						c0-0.03-0.01-0.06-0.01-0.08c0-0.04,0-0.09,0.01-0.13c0-0.01,0-0.02,0-0.02l7.86-59.74C170.66,99.25,170.66,99.32,170.67,99.4z
						"/>
					<g>
						<path class="st9" d="M171.44,98.35c-0.93,0.38-1.04,1.19-0.25,1.81c0.79,0.62,2.19,0.81,3.12,0.42
							c0.93-0.39,1.04-1.19,0.25-1.81C173.77,98.16,172.37,97.97,171.44,98.35z"/>
					</g>
				</g>
				<g>
					<path class="st8" d="M149.4,105.71c0.01,0.01,0.02,0.02,0.03,0.03c0.04,0.06,0.09,0.11,0.16,0.16
						c0.01,0.01,0.02,0.02,0.04,0.03c0.07,0.05,0.14,0.1,0.22,0.13c0.05,0.02,0.12,0.04,0.19,0.06c0.05,0.02,0.1,0.04,0.16,0.05
						c0.23,0.05,0.48,0.06,0.73,0.05c0.04,0,0.08,0,0.11-0.01c0.25-0.03,0.51-0.07,0.76-0.15c0.01,0,0.03,0,0.03-0.01
						c0.26-0.08,0.51-0.2,0.74-0.33c0.01-0.01,0.02-0.01,0.03-0.02c0.23-0.14,0.43-0.3,0.6-0.48c0.34-0.37,0.45-0.76,0.35-1.07
						l18.4,57.38c0.1,0.32-0.01,0.7-0.35,1.08c-0.08,0.08-0.17,0.17-0.26,0.25c-0.07,0.06-0.15,0.11-0.23,0.16
						c-0.04,0.03-0.08,0.05-0.11,0.07c-0.01,0.01-0.02,0.01-0.03,0.02c-0.02,0.01-0.05,0.02-0.06,0.04c-0.06,0.03-0.13,0.07-0.2,0.1
						l-0.01-0.02l0,0l0.01,0.02c-0.07,0.03-0.13,0.06-0.2,0.09c-0.06,0.03-0.14,0.05-0.21,0.08c-0.02,0.01-0.05,0.01-0.07,0.03
						c-0.01,0-0.02,0-0.03,0c-0.03,0.01-0.07,0.03-0.11,0.04c-0.08,0.02-0.16,0.04-0.24,0.06c-0.1,0.02-0.19,0.04-0.28,0.05
						c-0.05,0.01-0.08,0.01-0.13,0.01c-0.03,0-0.08,0-0.11,0c-0.06,0.01-0.13,0.02-0.2,0.02c-0.18,0-0.36-0.02-0.53-0.06
						c-0.01,0-0.02,0-0.03-0.01c-0.05-0.01-0.08-0.03-0.13-0.04c-0.06-0.02-0.13-0.04-0.19-0.07c-0.01,0-0.02,0-0.02,0
						c-0.07-0.03-0.12-0.06-0.18-0.1c-0.01-0.01-0.02-0.02-0.03-0.03c-0.01-0.01-0.03-0.01-0.04-0.03
						c-0.02-0.01-0.04-0.02-0.06-0.04c-0.04-0.03-0.07-0.07-0.1-0.1c0,0-0.01-0.01-0.01-0.01c-0.01-0.01-0.02-0.02-0.02-0.03
						c-0.01-0.02-0.03-0.04-0.04-0.06c-0.02-0.04-0.04-0.08-0.06-0.12c0,0,0-0.01-0.01-0.02l-18.4-57.38
						C149.32,105.59,149.36,105.65,149.4,105.71z"/>
					<g>
						<path class="st9" d="M149.65,104.44c-0.68,0.74-0.44,1.52,0.54,1.74c0.98,0.22,2.32-0.21,3.01-0.95
							c0.68-0.75,0.43-1.52-0.54-1.74C151.67,103.27,150.33,103.69,149.65,104.44z"/>
					</g>
				</g>
				<g>
					
						<linearGradient id="SVGID_1_" gradientUnits="userSpaceOnUse" x1="565.2219" y1="135.6903" x2="578.5826" y2="135.6903" gradientTransform="matrix(-1 0 0 1 747.5391 0)">
						<stop  offset="0" style="stop-color:#FFDF02"/>
						<stop  offset="0.1253" style="stop-color:#F9D402"/>
						<stop  offset="0.4425" style="stop-color:#ECBD01"/>
						<stop  offset="0.7411" style="stop-color:#E4AF00"/>
						<stop  offset="1" style="stop-color:#E1AA00"/>
					</linearGradient>
					<path class="st10" d="M169.03,105.95c0,0.01,0.01,0.01,0.01,0.02c0.04,0.06,0.08,0.13,0.13,0.19c0.01,0.01,0.02,0.02,0.03,0.02
						c0.06,0.06,0.13,0.12,0.2,0.17c0.05,0.03,0.12,0.06,0.18,0.09c0.05,0.03,0.09,0.06,0.15,0.08c0.22,0.09,0.46,0.13,0.71,0.16
						c0.04,0,0.07,0.01,0.11,0.01c0.25,0.02,0.51,0.01,0.77-0.03c0.01,0,0.02,0,0.03,0c0.27-0.04,0.54-0.11,0.78-0.21
						c0.01,0,0.02-0.01,0.03-0.01c0.25-0.1,0.48-0.23,0.68-0.38c0.4-0.31,0.56-0.68,0.52-1.01l8.94,59.59
						c0.05,0.33-0.12,0.69-0.52,1.01c-0.09,0.08-0.19,0.14-0.29,0.2c-0.08,0.05-0.16,0.09-0.25,0.13c-0.04,0.02-0.09,0.04-0.13,0.05
						c-0.01,0-0.02,0-0.02,0.01c-0.03,0.01-0.05,0.02-0.07,0.03c-0.07,0.02-0.14,0.05-0.21,0.07c-0.07,0.02-0.14,0.04-0.22,0.06
						c-0.07,0.02-0.14,0.03-0.21,0.04c-0.02,0.01-0.06,0.01-0.08,0.01c-0.01,0-0.02,0.01-0.02,0.01c-0.04,0-0.08,0.01-0.12,0.01
						c-0.08,0.01-0.17,0.02-0.25,0.02c-0.09,0-0.19,0.01-0.28,0c-0.04,0-0.08-0.01-0.13-0.01c-0.03,0-0.07-0.01-0.11-0.01
						c-0.06,0-0.13,0-0.2-0.02c-0.18-0.03-0.36-0.07-0.52-0.14c-0.02-0.01-0.02-0.01-0.03-0.01c-0.04-0.02-0.08-0.05-0.12-0.06
						c-0.06-0.04-0.13-0.06-0.18-0.1c0,0-0.01,0-0.01-0.01c-0.06-0.04-0.11-0.08-0.16-0.13c-0.01-0.01-0.02-0.02-0.03-0.03
						c-0.01-0.02-0.02-0.03-0.03-0.04c-0.02-0.01-0.04-0.03-0.05-0.05c-0.03-0.04-0.05-0.08-0.07-0.12
						c-0.01-0.01-0.01-0.01-0.02-0.02c0-0.01-0.01-0.02-0.01-0.03c-0.01-0.03-0.03-0.05-0.03-0.07c-0.02-0.04-0.03-0.08-0.03-0.13
						c0,0,0-0.01,0-0.02l-8.94-59.59C168.97,105.8,168.99,105.88,169.03,105.95z"/>
					<g>
						<path class="st11" d="M169.47,104.73c-0.79,0.62-0.67,1.43,0.26,1.81c0.93,0.37,2.32,0.17,3.12-0.46
							c0.79-0.63,0.68-1.44-0.25-1.81C171.66,103.89,170.27,104.1,169.47,104.73z"/>
					</g>
				</g>
				<g>
					
						<linearGradient id="SVGID_2_" gradientUnits="userSpaceOnUse" x1="569.4901" y1="160.9784" x2="582.8566" y2="160.9784" gradientTransform="matrix(-0.9906 -0.137 -0.137 0.9906 758.0406 49.8109)">
						<stop  offset="0" style="stop-color:#FFDF02"/>
						<stop  offset="0.1253" style="stop-color:#F9D402"/>
						<stop  offset="0.4425" style="stop-color:#ECBD01"/>
						<stop  offset="0.7411" style="stop-color:#E4AF00"/>
						<stop  offset="1" style="stop-color:#E1AA00"/>
					</linearGradient>
					<path class="st12" d="M162.76,99.98c0,0.01,0,0.01,0.01,0.02c0.03,0.07,0.06,0.13,0.11,0.2c0.01,0.01,0.02,0.03,0.03,0.04
						c0.05,0.06,0.11,0.13,0.18,0.19c0.05,0.04,0.11,0.08,0.16,0.12c0.05,0.03,0.08,0.06,0.13,0.1c0.2,0.12,0.43,0.19,0.68,0.26
						c0.04,0,0.07,0.01,0.11,0.02c0.25,0.05,0.51,0.09,0.77,0.09c0.01,0,0.02,0,0.03,0c0.27,0,0.55-0.04,0.81-0.1c0,0,0.02,0,0.03,0
						c0.26-0.06,0.51-0.16,0.72-0.28c0.44-0.26,0.65-0.59,0.65-0.93l0.7,60.25c0,0.34-0.22,0.67-0.65,0.93
						c-0.1,0.06-0.21,0.11-0.32,0.16c-0.09,0.03-0.18,0.07-0.28,0.09c-0.04,0.01-0.08,0.03-0.13,0.03c-0.01,0-0.02,0-0.03,0
						c-0.02,0.01-0.05,0.02-0.07,0.02c-0.07,0.02-0.14,0.03-0.22,0.04c-0.07,0.01-0.15,0.02-0.22,0.03
						c-0.07,0.01-0.15,0.01-0.22,0.01c-0.03,0-0.06,0-0.09,0c-0.01,0-0.01,0-0.02,0c-0.04,0-0.08,0-0.11,0c-0.09,0-0.17,0-0.25-0.01
						c-0.1-0.01-0.19-0.02-0.29-0.03c-0.04-0.01-0.08-0.03-0.12-0.03c-0.03-0.01-0.07-0.02-0.1-0.03c-0.07-0.01-0.13-0.02-0.2-0.05
						c-0.18-0.05-0.34-0.12-0.49-0.2c-0.01-0.01-0.02-0.02-0.03-0.02c-0.04-0.02-0.07-0.05-0.11-0.08
						c-0.06-0.04-0.11-0.07-0.15-0.11c0,0-0.02,0-0.02-0.01c-0.06-0.05-0.1-0.1-0.14-0.15c-0.02-0.01-0.02-0.02-0.03-0.04
						c-0.01-0.01-0.02-0.03-0.03-0.04c-0.02-0.02-0.03-0.04-0.04-0.06c-0.02-0.04-0.04-0.08-0.06-0.13c-0.01,0-0.01-0.01-0.01-0.02
						c0-0.01-0.01-0.01-0.01-0.02c-0.01-0.03-0.02-0.05-0.02-0.08c-0.02-0.04-0.02-0.08-0.02-0.12c0-0.01,0-0.01,0-0.02l-0.7-60.26
						C162.72,99.82,162.73,99.9,162.76,99.98z"/>
					<g>
						<path class="st11" d="M163.37,98.82c-0.87,0.51-0.86,1.33,0.01,1.83c0.87,0.5,2.28,0.48,3.15-0.03
							c0.87-0.51,0.86-1.33-0.01-1.83C165.65,98.3,164.23,98.31,163.37,98.82z"/>
					</g>
				</g>
				<path class="st7" d="M186.02,140.56c-8.02,4.63-20.97,4.63-28.95,0c-5.5-3.2-7.18-7.78-5.05-11.82h3.9
					c-2.27,3.46-1.02,7.52,3.77,10.31c6.54,3.8,17.17,3.8,23.75,0c4.83-2.79,6.12-6.85,3.88-10.31h3.87
					C193.29,132.79,191.56,137.36,186.02,140.56z"/>
				
					<linearGradient id="SVGID_3_" gradientUnits="userSpaceOnUse" x1="575.8871" y1="139.647" x2="575.8871" y2="190.5668" gradientTransform="matrix(-1 0 0 1 747.5391 0)">
					<stop  offset="0" style="stop-color:#FF4CAA"/>
					<stop  offset="1" style="stop-color:#E53399"/>
				</linearGradient>
				<path class="st13" d="M151.18,132.84c0.02,0.21,0.04,0.42,0.07,0.64c0.03,0.18,0.09,0.35,0.13,0.52
					c0.05,0.21,0.1,0.41,0.18,0.62c0.06,0.16,0.13,0.32,0.21,0.49c0.09,0.21,0.19,0.43,0.3,0.64c0.08,0.15,0.18,0.3,0.27,0.46
					c0.15,0.24,0.31,0.49,0.48,0.72c0.17,0.23,0.35,0.45,0.54,0.67c0.05,0.05,0.09,0.11,0.14,0.16c0.26,0.29,0.55,0.57,0.86,0.85
					c0.2,0.18,0.42,0.35,0.64,0.53c0.19,0.15,0.36,0.3,0.56,0.44c0.24,0.17,0.49,0.33,0.74,0.49c0.26,0.17,0.5,0.34,0.78,0.5
					c0.62,0.35,1.26,0.67,1.93,0.97c0.19,0.09,0.39,0.16,0.59,0.25c0.53,0.22,1.06,0.42,1.61,0.6c0.2,0.07,0.39,0.14,0.59,0.21
					c0.35,0.11,0.7,0.21,1.06,0.3c0.27,0.07,0.53,0.15,0.81,0.22c0.36,0.09,0.75,0.16,1.12,0.24c0.26,0.05,0.53,0.11,0.79,0.16
					c0.76,0.14,1.54,0.24,2.33,0.33c0.23,0.02,0.48,0.04,0.73,0.06c0.46,0.04,0.92,0.08,1.39,0.1c0.29,0.01,0.59,0.02,0.88,0.02
					c0.37,0.01,0.75,0.01,1.12,0.01c0.31-0.01,0.63-0.01,0.95-0.03c0.35-0.01,0.69-0.03,1.03-0.06c0.31-0.02,0.62-0.05,0.94-0.08
					c0.35-0.03,0.68-0.07,1.03-0.11c0.31-0.04,0.61-0.08,0.92-0.13c0.36-0.06,0.72-0.12,1.08-0.19c0.28-0.05,0.56-0.11,0.84-0.17
					c0.43-0.09,0.86-0.2,1.28-0.31c0.23-0.06,0.46-0.12,0.69-0.18c0.75-0.22,1.48-0.47,2.2-0.75c0.36-0.14,0.72-0.3,1.07-0.46
					c0.16-0.07,0.33-0.13,0.49-0.21c0.52-0.24,1.02-0.5,1.51-0.78c4.04-2.34,6.06-5.39,6.04-8.44l0.11,40.17
					c0.01,3.05-2.01,6.11-6.04,8.44c-0.48,0.28-0.99,0.54-1.51,0.79c-0.18,0.08-0.36,0.15-0.54,0.24c-0.3,0.14-0.6,0.27-0.91,0.4
					c-0.03,0.01-0.06,0.01-0.1,0.03c-0.71,0.28-1.45,0.53-2.22,0.75c-0.05,0.02-0.11,0.04-0.17,0.06c-0.17,0.05-0.33,0.08-0.51,0.13
					c-0.43,0.11-0.86,0.22-1.3,0.32c-0.11,0.02-0.22,0.06-0.34,0.08c-0.16,0.03-0.33,0.05-0.49,0.08c-0.37,0.07-0.73,0.13-1.1,0.19
					c-0.15,0.02-0.29,0.05-0.44,0.07c-0.16,0.03-0.32,0.04-0.48,0.06c-0.34,0.04-0.69,0.08-1.04,0.12
					c-0.15,0.01-0.31,0.04-0.47,0.05c-0.14,0.01-0.29,0.01-0.44,0.02c-0.35,0.02-0.71,0.04-1.06,0.05
					c-0.17,0.01-0.35,0.02-0.51,0.03c-0.14,0-0.27,0-0.41,0c-0.38,0-0.75,0-1.13-0.01c-0.19,0-0.38,0.01-0.55,0
					c-0.11,0-0.22-0.02-0.33-0.02c-0.47-0.02-0.94-0.05-1.4-0.09c-0.18-0.01-0.36-0.02-0.54-0.03c-0.06-0.01-0.1-0.02-0.17-0.03
					c-0.79-0.08-1.56-0.19-2.33-0.32c-0.03-0.01-0.07-0.01-0.11-0.02c-0.22-0.04-0.43-0.1-0.64-0.14c-0.39-0.08-0.78-0.15-1.16-0.25
					c-0.27-0.06-0.53-0.14-0.79-0.21c-0.36-0.1-0.72-0.19-1.07-0.3c-0.07-0.03-0.15-0.04-0.22-0.07c-0.12-0.04-0.23-0.08-0.36-0.13
					c-0.55-0.19-1.09-0.39-1.62-0.62c-0.19-0.08-0.39-0.16-0.58-0.24c-0.67-0.3-1.32-0.62-1.93-0.98c-0.08-0.05-0.17-0.09-0.25-0.14
					c-0.18-0.12-0.34-0.24-0.53-0.35c-0.25-0.16-0.51-0.32-0.74-0.49c-0.2-0.15-0.39-0.31-0.58-0.46c-0.21-0.17-0.43-0.34-0.62-0.51
					c-0.04-0.04-0.09-0.07-0.13-0.11c-0.27-0.24-0.51-0.49-0.74-0.74c-0.04-0.05-0.09-0.11-0.13-0.16c-0.14-0.15-0.28-0.3-0.4-0.46
					c-0.06-0.07-0.09-0.14-0.14-0.21c-0.18-0.23-0.33-0.47-0.48-0.71c-0.06-0.1-0.15-0.2-0.2-0.3c-0.03-0.05-0.05-0.1-0.08-0.15
					c-0.11-0.21-0.2-0.42-0.29-0.63c-0.06-0.13-0.13-0.25-0.18-0.38c-0.02-0.04-0.02-0.09-0.03-0.14c-0.08-0.19-0.12-0.38-0.17-0.58
					c-0.04-0.14-0.1-0.29-0.12-0.44c-0.01-0.04-0.01-0.08-0.02-0.12c-0.03-0.2-0.05-0.41-0.07-0.62c-0.01-0.15-0.05-0.3-0.05-0.44
					c0-0.06,0-0.12,0-0.18l-0.11-40.17C151.13,132.44,151.15,132.64,151.18,132.84z"/>
			</g>
		</g>
		<g>
			<g class="st5">
				<polygon points="353.87,242.42 275.18,288.16 143.73,212.26 222.41,166.55 				"/>
			</g>
			<g>
				<path class="st14" d="M340.4,240.55c-0.93,3.46-60.42,35.14-60.42,35.14c-3.85,2.23-11.58,1.88-15.46-0.37
					c-26.9-15.53-105.48-61.39-105.48-61.39c-3.87-2.23-5.05-8.03-1.21-10.26l61.98-33.99C219.81,169.68,349.19,208.14,340.4,240.55
					z"/>
			</g>
			<g>
				<path class="st15" d="M340.84,237.82l-60.85,35.37c-3.85,2.22-11.58,1.89-15.46-0.35c-26.9-15.54-106.16-61.79-106.16-61.79
					c-3.89-2.26-3.91-5.88-0.06-8.11l61.5-35.75L340.84,237.82z"/>
			</g>
			<path class="st14" d="M356.89,153.08c-0.06-0.45-0.13-0.91-0.23-1.37c-0.04-0.13-0.06-0.26-0.11-0.4
				c-0.12-0.47-0.26-0.95-0.45-1.39c-0.01-0.08-0.05-0.17-0.07-0.22c-0.16-0.39-0.35-0.77-0.55-1.14c-0.11-0.19-0.19-0.35-0.32-0.53
				c-0.2-0.31-0.39-0.61-0.6-0.87c-0.04-0.09-0.12-0.19-0.16-0.25c-0.28-0.38-0.6-0.69-0.91-0.99c-0.1-0.08-0.16-0.13-0.26-0.21
				c-0.35-0.31-0.7-0.57-1.1-0.8l-106.88-61.7c-0.41-0.24-0.83-0.41-1.25-0.53c-0.15-0.04-0.26-0.08-0.42-0.11
				c-0.19-0.06-0.38-0.08-0.57-0.11c-0.17-0.03-0.34-0.03-0.51-0.03c-0.12,0-0.26,0-0.38,0c-0.27,0.03-0.52,0.06-0.77,0.12
				l3.03-0.75c0.17-0.05,0.36-0.1,0.53-0.1c0.08,0,0.16,0,0.24,0c0.13-0.02,0.22-0.02,0.38-0.02c0.08,0,0.16,0,0.25,0
				c0.07,0,0.16,0.02,0.26,0.02c0.16,0.03,0.35,0.06,0.55,0.11c0.1,0.01,0.17,0.01,0.28,0.05c0.05,0.02,0.13,0.05,0.16,0.08
				c0.42,0.11,0.86,0.27,1.26,0.52l106.88,61.71c0.4,0.22,0.76,0.5,1.1,0.81c0.07,0.06,0.15,0.11,0.21,0.17
				c0.32,0.31,0.66,0.66,0.94,1.01c0.06,0.07,0.11,0.13,0.16,0.21c0.11,0.14,0.25,0.28,0.36,0.45c0.1,0.14,0.15,0.33,0.26,0.47
				c0.12,0.16,0.22,0.33,0.31,0.49c0.04,0.09,0.09,0.17,0.13,0.25c0.16,0.31,0.31,0.65,0.42,0.99c0.03,0.04,0.06,0.08,0.07,0.11
				c0,0.02,0,0.02,0,0.02c0.16,0.36,0.28,0.73,0.37,1.09c0.04,0.11,0.04,0.26,0.08,0.36c0.04,0.11,0.06,0.23,0.08,0.32
				c0.05,0.15,0.08,0.29,0.09,0.42c0.08,0.33,0.11,0.65,0.15,0.98c0,0.05,0.03,0.11,0.04,0.16c0,0,0,0.03,0,0.06
				c0.04,0.47,0.04,0.95,0.04,1.43c0,0.03-0.03,0.07-0.03,0.1c-0.01,0.62-0.11,1.2-0.22,1.81l-19.34,84.65l-2.57,1.49l18.88-85.41
				c0.12-0.58,0.19-1.2,0.23-1.82c0-0.51,0-1.05-0.03-1.57C356.89,153.19,356.89,153.13,356.89,153.08z"/>
			<g>
				<path class="st15" d="M245.25,83.22c-3.47-2.02-7.13-0.07-8.13,4.38l-17.32,79.59l118.66,72.02l18.24-82.59
					c0.98-4.44-1.07-9.68-4.58-11.71L245.25,83.22z"/>
			</g>
			
				<linearGradient id="SVGID_4_" gradientUnits="userSpaceOnUse" x1="497.9765" y1="100.6365" x2="410.0862" y2="236.5738" gradientTransform="matrix(-1 0 0 1 747.5391 0)">
				<stop  offset="0" style="stop-color:#90D9F9"/>
				<stop  offset="1" style="stop-color:#29B7E0"/>
			</linearGradient>
			<polygon class="st16" points="352.54,158.96 239.51,94.46 224.52,162.84 336.05,231.24 			"/>
			<g>
				<g>
					<g>
						<path class="st17" d="M215.57,178.35l107.75,62.21l-35.96,20.92l-107.78-62.22L215.57,178.35z M261.76,243.48l4.82-2.82
							l-50.17-28.95l-4.84,2.8L261.76,243.48L261.76,243.48z M229.86,203.88l-4.85,2.82l4.45,2.56l4.84-2.81L229.86,203.88
							L229.86,203.88z M214.22,200.45l4.84-2.8l-4.44-2.58l-4.85,2.84L214.22,200.45L214.22,200.45z M275.2,235.67l4.85-2.82
							l-4.45-2.57l-4.84,2.82L275.2,235.67L275.2,235.67z M260.36,221.48l-4.85,2.82l4.45,2.57l4.84-2.83L260.36,221.48
							L260.36,221.48z M290.42,244.47l4.85-2.81l-4.44-2.58l-4.85,2.82L290.42,244.47L290.42,244.47z M240.27,215.51l4.42,2.56
							l4.86-2.82l-4.43-2.58L240.27,215.51L240.27,215.51z M240.02,209.74l-4.82,2.82l4.44,2.57l4.84-2.8L240.02,209.74
							L240.02,209.74z M300.6,250.34l4.86-2.81l-4.43-2.57l-4.87,2.82L300.6,250.34L300.6,250.34z M209.13,197.54l4.86-2.82
							l-4.43-2.59l-4.84,2.82L209.13,197.54L209.13,197.54z M255.29,218.56l-4.84,2.8l4.44,2.58l4.83-2.81L255.29,218.56
							L255.29,218.56z M224.38,206.32l4.85-2.8l-4.44-2.58l-4.85,2.82L224.38,206.32L224.38,206.32z M270.53,227.36l-4.85,2.8
							l4.44,2.57l4.85-2.81L270.53,227.36L270.53,227.36z M285.36,241.52l4.86-2.8l-4.44-2.56l-4.86,2.79L285.36,241.52
							L285.36,241.52z M277,252.28l4.83-2.8l-4.46-2.57l-4.82,2.82L277,252.28L277,252.28z M207.5,204.36l4.84-2.79l-4.45-2.59
							l-4.84,2.82L207.5,204.36L207.5,204.36z M253.62,225.4l-4.81,2.81l4.44,2.56l4.83-2.8L253.62,225.4L253.62,225.4z
							 M236.57,199.98l-4.81,2.79l4.43,2.58l4.83-2.8L236.57,199.98L236.57,199.98z M220.95,196.54l4.83-2.81l-4.44-2.56l-4.82,2.8
							L220.95,196.54L220.95,196.54z M242.83,219.15l-4.47-2.55l-4.83,2.8l4.46,2.57L242.83,219.15L242.83,219.15z M247.02,211.57
							l4.43,2.59l4.85-2.81l-4.46-2.57L247.02,211.57L247.02,211.57z M223.12,207.79l-4.83,2.81l4.45,2.57l4.83-2.82L223.12,207.79
							L223.12,207.79z M200.78,208.29l4.84-2.83l-4.46-2.55l-4.84,2.8L200.78,208.29L200.78,208.29z M267.09,217.58l-4.84,2.8
							l4.42,2.59l4.86-2.81L267.09,217.58L267.09,217.58z M283.72,248.37l4.83-2.8l-4.44-2.58l-4.82,2.82L283.72,248.37
							L283.72,248.37z M268.48,239.57l4.84-2.8l-4.45-2.57l-4.85,2.8L268.48,239.57L268.48,239.57z M281.93,231.76l4.82-2.82
							l-4.42-2.56l-4.84,2.81L281.93,231.76L281.93,231.76z M297.18,240.55l4.85-2.8l-4.46-2.58l-4.81,2.81L297.18,240.55
							L297.18,240.55z M246.76,205.84l-4.84,2.82l4.46,2.56l4.84-2.81L246.76,205.84L246.76,205.84z M278.65,245.46l4.83-2.83
							l-4.46-2.56l-4.83,2.79L278.65,245.46L278.65,245.46z M292.1,237.63l4.84-2.8l-4.44-2.58l-4.85,2.82L292.1,237.63
							L292.1,237.63z M248.55,222.47l-4.84,2.79l4.45,2.58l4.85-2.81L248.55,222.47L248.55,222.47z M231.13,202.41l4.82-2.81
							l-4.43-2.55l-4.84,2.81L231.13,202.41L231.13,202.41z M262,214.64l-4.84,2.8l4.46,2.58l4.82-2.8L262,214.64L262,214.64z
							 M217.67,210.24l4.83-2.81l-4.45-2.57l-4.84,2.81L217.67,210.24L217.67,210.24z M233.29,213.66l-4.83,2.8l4.45,2.57l4.83-2.8
							L233.29,213.66L233.29,213.66z M210.96,214.16l4.82-2.81l-4.46-2.57l-4.81,2.8L210.96,214.16L210.96,214.16z M263.79,231.27
							l-4.84,2.8l4.45,2.56l4.83-2.8L263.79,231.27L263.79,231.27z M277.26,223.43l-4.85,2.82l4.46,2.57l4.83-2.82L277.26,223.43
							L277.26,223.43z M287.17,258.16l4.84-2.82l-4.46-2.57l-4.82,2.8L287.17,258.16L287.17,258.16z M195.71,205.35l4.83-2.8
							l-4.45-2.57l-4.83,2.81L195.71,205.35L195.71,205.35z M202.43,201.43l4.83-2.8l-4.45-2.59l-4.83,2.83L202.43,201.43
							L202.43,201.43z M293.89,254.24l4.83-2.81l-4.44-2.57l-4.84,2.82L293.89,254.24L293.89,254.24z M215.88,193.62l4.83-2.82
							l-4.43-2.56l-4.84,2.82L215.88,193.62L215.88,193.62z M271.93,249.36l4.83-2.81l-4.46-2.57l-4.85,2.8L271.93,249.36
							L271.93,249.36z M307.36,246.41l4.82-2.79l-4.46-2.57l-4.82,2.81L307.36,246.41L307.36,246.41z M204.04,194.58l4.87-2.81
							l-4.45-2.56l-4.84,2.81L204.04,194.58L204.04,194.58z M265.45,224.42l-4.84,2.81l4.42,2.54l4.85-2.8L265.45,224.42
							L265.45,224.42z M280.28,238.59l4.85-2.81l-4.43-2.56l-4.86,2.8L280.28,238.59L280.28,238.59z M219.29,203.39l4.86-2.81
							l-4.44-2.56l-4.84,2.81L219.29,203.39L219.29,203.39z M234.96,206.82l-4.84,2.81l4.42,2.57l4.85-2.83L234.96,206.82
							L234.96,206.82z M295.51,247.39l4.84-2.8l-4.42-2.56l-4.85,2.81L295.51,247.39L295.51,247.39z M245.36,218.45l4.42,2.53
							l4.83-2.81l-4.4-2.56L245.36,218.45L245.36,218.45z M302.24,243.48l4.85-2.82l-4.44-2.53l-4.82,2.8L302.24,243.48
							L302.24,243.48z M197.34,198.5l4.84-2.8l-4.44-2.56l-4.83,2.8L197.34,198.5L197.34,198.5z M288.81,251.32l4.82-2.82
							l-4.44-2.55l-4.83,2.81L288.81,251.32L288.81,251.32z M228.21,210.72l-4.83,2.83l4.45,2.56l4.83-2.81L228.21,210.72
							L228.21,210.72z M226.04,199.48l4.82-2.8l-4.41-2.56l-4.86,2.8L226.04,199.48L226.04,199.48z M241.69,202.91l-4.83,2.82
							l4.43,2.57l4.81-2.83L241.69,202.91L241.69,202.91z M266.83,246.41l4.82-2.79l-4.44-2.57l-4.83,2.81L266.83,246.41
							L266.83,246.41z M190.62,202.41l4.81-2.81l-4.41-2.55l-4.85,2.81L190.62,202.41L190.62,202.41z M273.58,242.51l4.81-2.81
							l-4.44-2.57l-4.84,2.82L273.58,242.51L273.58,242.51z M212.59,207.31l4.82-2.83l-4.43-2.54l-4.85,2.81L212.59,207.31
							L212.59,207.31z M287,234.68l4.85-2.81l-4.42-2.55l-4.85,2.79L287,234.68L287,234.68z M282.09,255.22l4.8-2.82l-4.44-2.57
							l-4.81,2.82L282.09,255.22L282.09,255.22z M272.19,220.51l-4.85,2.8l4.42,2.56l4.84-2.79L272.19,220.51L272.19,220.51z
							 M205.84,211.19l4.85-2.79l-4.44-2.55l-4.83,2.8L205.84,211.19L205.84,211.19z M252.1,214.51l4.43,2.57l4.82-2.81l-4.42-2.56
							L252.1,214.51L252.1,214.51z M247.9,222.08l-4.44-2.55l-4.81,2.8l4.44,2.58L247.9,222.08L247.9,222.08z M210.79,190.68
							l4.81-2.81l-4.43-2.56l-4.84,2.8L210.79,190.68L210.79,190.68z M258.71,228.33l-4.82,2.81l4.43,2.57l4.83-2.82L258.71,228.33
							L258.71,228.33z M254.13,203.52l-3.35,1.94l4.44,2.57l3.34-1.93L254.13,203.52L254.13,203.52z M286.3,222.08l-3.35,1.96
							l4.46,2.57l3.35-1.97L286.3,222.08L286.3,222.08z M223.65,185.91l-3.39,1.96l4.46,2.57l3.35-1.98L223.65,185.91L223.65,185.91
							z M242.27,196.68l-3.35,1.95l4.41,2.56l3.39-1.94L242.27,196.68L242.27,196.68z M235.5,192.77l-3.37,1.95l4.45,2.58l3.38-1.95
							L235.5,192.77L235.5,192.77z M304.95,232.85l-3.38,1.95l4.46,2.58l3.34-1.94L304.95,232.85L304.95,232.85z M311.7,236.78
							l-3.33,1.95l4.44,2.58l3.34-1.98L311.7,236.78L311.7,236.78z M294.17,230.52l3.36-1.96L293.1,226l-3.35,1.97L294.17,230.52
							L294.17,230.52z M217.95,186.52l3.37-1.94l-4.42-2.57l-3.37,1.94L217.95,186.52L217.95,186.52z M260.92,207.43l-3.36,1.96
							l4.44,2.56l3.35-1.96L260.92,207.43L260.92,207.43z"/>
					</g>
				</g>
			</g>
			<g>
				<g>
					<g>
						<polygon class="st18" points="251.21,208.4 246.38,211.22 241.92,208.65 246.76,205.85 						"/>
					</g>
					<g>
						<polygon class="st18" points="215.61,187.87 210.79,190.68 206.34,188.11 211.18,185.31 						"/>
					</g>
					<g>
						<polygon class="st18" points="235.95,199.6 231.13,202.41 226.67,199.86 231.52,197.06 						"/>
					</g>
					<g>
						<polygon class="st18" points="222.51,207.43 217.67,210.24 213.22,207.68 218.05,204.86 						"/>
					</g>
					<g>
						<polygon class="st18" points="221.31,184.58 217.95,186.52 213.52,183.95 216.89,182.01 						"/>
					</g>
					<g>
						<polygon class="st18" points="228.07,188.47 224.73,190.45 220.27,187.87 223.65,185.91 						"/>
					</g>
					<g>
						<polygon class="st18" points="220.71,190.8 215.88,193.62 211.44,191.06 216.27,188.24 						"/>
					</g>
					<g>
						<polygon class="st18" points="208.91,191.77 204.04,194.58 199.62,192.02 204.46,189.21 						"/>
					</g>
					<g>
						<polygon class="st18" points="225.79,193.73 220.95,196.54 216.52,193.97 221.34,191.17 						"/>
					</g>
					<g>
						<polygon class="st18" points="239.95,195.35 236.57,197.3 232.13,194.72 235.5,192.77 						"/>
					</g>
					<g>
						<polygon class="st18" points="213.99,194.72 209.13,197.54 204.71,194.96 209.55,192.13 						"/>
					</g>
					<g>
						<polygon class="st18" points="202.18,195.7 197.34,198.5 192.91,195.93 197.74,193.14 						"/>
					</g>
					<g>
						<polygon class="st18" points="230.86,196.68 226.04,199.48 221.59,196.92 226.45,194.12 						"/>
					</g>
					<g>
						<polygon class="st18" points="219.06,197.65 214.22,200.45 209.78,197.91 214.62,195.07 						"/>
					</g>
					<g>
						<polygon class="st18" points="246.72,199.25 243.33,201.19 238.91,198.63 242.27,196.68 						"/>
					</g>
					<g>
						<polygon class="st18" points="207.26,198.63 202.43,201.43 197.98,198.87 202.81,196.04 						"/>
					</g>
					<g>
						<polygon class="st18" points="195.43,199.6 190.62,202.41 186.17,199.86 191.01,197.06 						"/>
					</g>
					<g>
						<polygon class="st18" points="224.15,200.58 219.29,203.39 214.87,200.83 219.71,198.02 						"/>
					</g>
					<g>
						<polygon class="st18" points="212.34,201.57 207.5,204.36 203.05,201.79 207.89,198.98 						"/>
					</g>
					<g>
						<polygon class="st18" points="241.03,202.54 236.2,205.35 231.77,202.77 236.57,199.98 						"/>
					</g>
					<g>
						<polygon class="st18" points="229.23,203.52 224.38,206.32 219.94,203.76 224.79,200.95 						"/>
					</g>
					<g>
						<polygon class="st18" points="217.42,204.48 212.59,207.31 208.13,204.75 212.98,201.94 						"/>
					</g>
					<g>
						<polygon class="st18" points="258.56,206.11 255.22,208.04 250.78,205.46 254.13,203.52 						"/>
					</g>
					<g>
						<polygon class="st18" points="246.1,205.46 241.29,208.29 236.86,205.72 241.69,202.91 						"/>
					</g>
					<g>
						<polygon class="st18" points="234.3,206.45 229.46,209.26 225.02,206.7 229.86,203.88 						"/>
					</g>
					<g>
						<polygon class="st18" points="210.69,208.4 205.84,211.19 201.42,208.65 206.25,205.85 						"/>
					</g>
					<g>
						<polygon class="st18" points="265.34,209.99 261.99,211.95 257.55,209.39 260.92,207.43 						"/>
					</g>
					<g>
						<polygon class="st18" points="239.38,209.37 234.53,212.21 230.12,209.63 234.96,206.82 						"/>
					</g>
					<g>
						<polygon class="st18" points="227.58,210.35 222.74,213.17 218.29,210.6 223.12,207.79 						"/>
					</g>
					<g>
						<polygon class="st18" points="256.3,211.35 251.45,214.16 247.02,211.57 251.83,208.77 						"/>
					</g>
					<g>
						<polygon class="st18" points="215.78,211.35 210.96,214.16 206.5,211.57 211.31,208.77 						"/>
					</g>
					<g>
						<polygon class="st18" points="232.66,213.31 227.83,216.11 223.38,213.56 228.21,210.72 						"/>
					</g>
					<g>
						<polygon class="st18" points="261.35,214.27 256.53,217.08 252.1,214.51 256.93,211.71 						"/>
					</g>
					<g>
						<polygon class="st18" points="249.55,215.25 244.68,218.07 240.27,215.51 245.12,212.67 						"/>
					</g>
					<g>
						<polygon class="st18" points="237.74,216.24 232.91,219.03 228.46,216.47 233.29,213.66 						"/>
					</g>
					<g>
						<polygon class="st18" points="266.44,217.22 261.62,220.02 257.16,217.44 262,214.64 						"/>
					</g>
					<g>
						<polygon class="st18" points="254.62,218.18 249.78,220.98 245.36,218.45 250.22,215.62 						"/>
					</g>
					<g>
						<polygon class="st18" points="242.83,219.15 237.99,221.98 233.53,219.41 238.36,216.6 						"/>
					</g>
					<g>
						<polygon class="st18" points="271.53,220.15 266.68,222.96 262.25,220.37 267.09,217.58 						"/>
					</g>
					<g>
						<polygon class="st18" points="259.73,221.12 254.9,223.93 250.45,221.36 255.29,218.56 						"/>
					</g>
					<g>
						<polygon class="st18" points="247.9,222.08 243.08,224.92 238.64,222.33 243.46,219.53 						"/>
					</g>
					<g>
						<polygon class="st18" points="276.6,223.08 271.76,225.87 267.34,223.31 272.19,220.51 						"/>
					</g>
					<g>
						<polygon class="st18" points="290.76,224.64 287.41,226.61 282.95,224.04 286.3,222.08 						"/>
					</g>
					<g>
						<polygon class="st18" points="264.8,224.04 259.96,226.87 255.51,224.3 260.36,221.48 						"/>
					</g>
					<g>
						<polygon class="st18" points="253.01,225.03 248.16,227.84 243.72,225.26 248.55,222.47 						"/>
					</g>
					<g>
						<polygon class="st18" points="281.7,226 276.87,228.83 272.4,226.25 277.26,223.43 						"/>
					</g>
					<g>
						<polygon class="st18" points="269.87,226.98 265.02,229.78 260.61,227.24 265.45,224.42 						"/>
					</g>
					<g>
						<polygon class="st18" points="297.53,228.56 294.17,230.52 289.74,227.97 293.1,226 						"/>
					</g>
					<g>
						<polygon class="st18" points="258.07,227.97 253.24,230.77 248.8,228.21 253.62,225.4 						"/>
					</g>
					<g>
						<polygon class="st18" points="286.75,228.94 281.93,231.76 277.49,229.18 282.33,226.38 						"/>
					</g>
					<g>
						<polygon class="st18" points="274.97,229.93 270.12,232.73 265.68,230.16 270.53,227.36 						"/>
					</g>
					<g>
						<polygon class="st18" points="263.15,230.89 258.32,233.71 253.89,231.14 258.71,228.33 						"/>
					</g>
					<g>
						<polygon class="st18" points="291.85,231.87 287,234.68 282.58,232.11 287.43,229.32 						"/>
					</g>
					<g>
						<polygon class="st18" points="280.05,232.85 275.2,235.67 270.76,233.1 275.6,230.28 						"/>
					</g>
					<g>
						<polygon class="st18" points="268.24,233.83 263.41,236.63 258.96,234.07 263.79,231.27 						"/>
					</g>
					<g>
						<polygon class="st18" points="309.37,235.43 306.03,237.38 301.57,234.8 304.95,232.85 						"/>
					</g>
					<g>
						<polygon class="st18" points="296.93,234.83 292.1,237.63 287.64,235.06 292.5,232.24 						"/>
					</g>
					<g>
						<polygon class="st18" points="285.13,235.78 280.28,238.59 275.85,236.02 280.7,233.22 						"/>
					</g>
					<g>
						<polygon class="st18" points="302.03,237.75 297.18,240.55 292.75,237.97 297.56,235.17 						"/>
					</g>
					<g>
						<polygon class="st18" points="316.16,239.33 312.82,241.3 308.38,238.72 311.7,236.78 						"/>
					</g>
					<g>
						<polygon class="st18" points="290.22,238.72 285.36,241.52 280.91,238.96 285.78,236.17 						"/>
					</g>
					<g>
						<polygon class="st18" points="278.39,239.7 273.58,242.51 269.11,239.95 273.95,237.13 						"/>
					</g>
					<g>
						<polygon class="st18" points="307.09,240.65 302.24,243.48 297.83,240.92 302.65,238.12 						"/>
					</g>
					<g>
						<polygon class="st18" points="266.58,240.65 261.76,243.48 211.57,214.51 216.41,211.71 						"/>
					</g>
					<g>
						<polygon class="st18" points="295.28,241.65 290.42,244.47 285.99,241.9 290.84,239.08 						"/>
					</g>
					<g>
						<polygon class="st18" points="283.48,242.63 278.65,245.46 274.2,242.86 279.02,240.07 						"/>
					</g>
					<g>
						<polygon class="st18" points="312.17,243.62 307.36,246.41 302.89,243.86 307.72,241.05 						"/>
					</g>
					<g>
						<polygon class="st18" points="271.65,243.62 266.83,246.41 262.39,243.86 267.22,241.05 						"/>
					</g>
					<g>
						<polygon class="st18" points="300.35,244.58 295.51,247.39 291.08,244.83 295.93,242.02 						"/>
					</g>
					<g>
						<polygon class="st18" points="288.55,245.57 283.72,248.37 279.29,245.82 284.11,242.99 						"/>
					</g>
					<g>
						<polygon class="st18" points="276.76,246.55 271.93,249.36 267.46,246.77 272.3,243.97 						"/>
					</g>
					<g>
						<polygon class="st18" points="305.46,247.52 300.6,250.34 296.15,247.77 301.02,244.95 						"/>
					</g>
					<g>
						<polygon class="st18" points="293.64,248.5 288.81,251.32 284.37,248.76 289.2,245.95 						"/>
					</g>
					<g>
						<polygon class="st18" points="281.83,249.48 277,252.28 272.56,249.72 277.38,246.9 						"/>
					</g>
					<g>
						<polygon class="st18" points="298.72,251.43 293.89,254.24 289.44,251.67 294.28,248.86 						"/>
					</g>
					<g>
						<polygon class="st18" points="286.9,252.4 282.09,255.22 277.65,252.65 282.46,249.83 						"/>
					</g>
					<g>
						<polygon class="st18" points="292.01,255.34 287.17,258.16 282.72,255.57 287.55,252.77 						"/>
					</g>
					<g>
						<polygon class="st18" points="244.48,212.33 239.64,215.13 235.2,212.56 240.02,209.74 						"/>
					</g>
					<g>
						<polygon class="st18" points="273.32,236.78 268.48,239.57 264.02,237.01 268.87,234.21 						"/>
					</g>
					<g>
						<polygon class="st18" points="205.63,205.46 200.78,208.29 196.33,205.71 201.17,202.91 						"/>
					</g>
					<g>
						<polygon class="st18" points="200.54,202.54 195.71,205.35 191.25,202.79 196.08,199.98 						"/>
					</g>
				</g>
			</g>
			<g>
				<path class="st18" d="M237.24,235.07c1.54,0.89,1.56,2.35,0.01,3.25l-10.12,5.86c-1.54,0.91-4.06,0.91-5.62,0.03l-13.74-7.95
					c-1.52-0.9-1.54-2.35,0-3.26l10.11-5.88c1.52-0.87,4.05-0.87,5.61,0L237.24,235.07z"/>
			</g>
			<g>
				<g>
					<path class="st17" d="M237.24,235.56c1.54,0.9,1.56,2.36,0.01,3.24l-10.12,5.87c-1.54,0.91-4.06,0.91-5.62,0.03l-13.74-7.95
						c-1.52-0.89-1.54-2.36,0-3.27l10.11-5.87c1.52-0.89,4.05-0.89,5.61,0L237.24,235.56z"/>
				</g>
			</g>
		</g>
		<g>
			<g class="st5">
				<g>
					<path d="M373.2,274.45c10.85,6.25,10.88,16.39,0.15,22.62c-10.75,6.26-28.19,6.26-39.03-0.02
						c-10.82-6.24-10.87-16.35-0.13-22.59C344.92,268.24,362.41,268.22,373.2,274.45z"/>
				</g>
			</g>
			<linearGradient id="SVGID_5_" gradientUnits="userSpaceOnUse" x1="346.991" y1="250.3146" x2="346.991" y2="311.6335">
				<stop  offset="0" style="stop-color:#FFDF02"/>
				<stop  offset="0.1253" style="stop-color:#F9D402"/>
				<stop  offset="0.4425" style="stop-color:#ECBD01"/>
				<stop  offset="0.7411" style="stop-color:#E4AF00"/>
				<stop  offset="1" style="stop-color:#E1AA00"/>
			</linearGradient>
			<path class="st19" d="M364.89,288.59c0.13-0.46,0.2-0.92,0.23-1.38l7.46-44.83H321.4l7.48,44.98c0.03,0.42,0.1,0.85,0.21,1.27
				l0.05,0.27h0.02c0.64,2.01,2.29,3.91,4.96,5.46c7.07,4.12,18.57,4.12,25.68,0c2.68-1.55,4.36-3.46,5.02-5.46h0.02L364.89,288.59z
				"/>
			<g>
				<g>
					<path class="st20" d="M328.95,231.9c-10.03,5.79-10.08,15.18-0.13,20.97c9.98,5.79,26.19,5.79,36.21,0
						c10.03-5.78,10.08-15.16,0.11-20.97C355.18,226.11,338.98,226.11,328.95,231.9z"/>
				</g>
			</g>
			<g>
				<g>
					<path class="st11" d="M328.95,231.9c-10.03,5.79-10.08,15.18-0.13,20.97c9.98,5.79,26.19,5.79,36.21,0
						c10.03-5.78,10.08-15.16,0.11-20.97C355.18,226.11,338.98,226.11,328.95,231.9z"/>
				</g>
			</g>
			<g>
				<g>
					<path class="st21" d="M331.61,233.44c-8.55,4.94-8.6,12.95-0.11,17.88c8.5,4.95,22.33,4.94,30.88,0
						c8.55-4.94,8.6-12.95,0.09-17.88C353.98,228.51,340.16,228.51,331.61,233.44z"/>
				</g>
			</g>
			<g>
				<path class="st22" d="M362.38,251.33c-8.55,4.94-22.38,4.94-30.88,0c-2.58-1.5-4.35-3.27-5.36-5.16
					c0.74-2.52,2.77-4.94,6.13-6.88c8.55-4.95,22.37-4.95,30.87,0c2.58,1.49,4.36,3.27,5.37,5.16
					C367.76,246.97,365.74,249.39,362.38,251.33z"/>
			</g>
			<g>
				<g>
					<path class="st23" d="M359.66,282c-0.04-0.02-0.07-0.04-0.12-0.06c-0.36-0.16-0.72-0.33-1.09-0.54l2.43-1.42
						c0.37,0.21,0.74,0.39,1.09,0.54c0.1,0.05,0.21,0.09,0.31,0.12c0.21,0.09,0.41,0.15,0.62,0.21c0.12,0.03,0.23,0.06,0.36,0.1
						c0.11,0.02,0.24,0.05,0.36,0.07c0.14,0.03,0.29,0.06,0.42,0.06c0.09,0.01,0.18,0.03,0.27,0.03c0.15,0.02,0.31,0.02,0.47,0.02
						c0.06,0,0.13,0,0.19,0c0.21-0.01,0.41-0.04,0.6-0.07c0.04-0.01,0.07-0.02,0.11-0.03c0.16-0.03,0.32-0.08,0.47-0.12
						c0.05-0.02,0.1-0.03,0.15-0.05c0.18-0.07,0.36-0.16,0.53-0.25l-2.44,1.42c-0.01,0.01-0.03,0.02-0.05,0.02
						c-0.12,0.07-0.25,0.14-0.39,0.2c-0.03,0-0.06,0.01-0.09,0.02c-0.05,0.02-0.1,0.04-0.16,0.06c-0.06,0.01-0.11,0.04-0.17,0.06
						c-0.09,0.02-0.18,0.04-0.27,0.06c-0.05,0.01-0.09,0.02-0.14,0.04c-0.02,0-0.03,0-0.04,0c-0.16,0.04-0.33,0.05-0.5,0.06
						c-0.01,0-0.04,0-0.05,0c-0.07,0-0.13,0-0.2,0c-0.1,0-0.2,0-0.29,0c-0.05,0-0.1-0.01-0.16-0.01c-0.1-0.01-0.19-0.01-0.29-0.03
						c-0.06-0.01-0.11-0.02-0.17-0.02c-0.08,0-0.16-0.03-0.22-0.04c-0.12-0.02-0.25-0.05-0.37-0.08c-0.05-0.02-0.1-0.03-0.15-0.04
						c-0.08-0.01-0.14-0.05-0.2-0.07c-0.21-0.05-0.41-0.12-0.61-0.21C359.79,282.04,359.72,282.03,359.66,282z"/>
				</g>
				<g>
					<path class="st23" d="M369.48,279.08c0-0.36-0.02-0.74-0.05-1.12c-0.01-0.11-0.02-0.22-0.03-0.33
						c-0.02-0.24-0.05-0.48-0.09-0.72c-0.03-0.24-0.07-0.48-0.13-0.73c-0.05-0.22-0.08-0.44-0.14-0.66
						c-0.03-0.17-0.08-0.32-0.12-0.48c-0.06-0.27-0.14-0.54-0.23-0.81c-0.03-0.12-0.07-0.24-0.11-0.36
						c-0.13-0.38-0.26-0.77-0.41-1.15c-0.02-0.06-0.05-0.12-0.07-0.19c-0.13-0.32-0.27-0.66-0.43-0.99c-0.05-0.1-0.09-0.2-0.13-0.3
						c-0.17-0.35-0.35-0.71-0.53-1.06c-0.02-0.03-0.03-0.06-0.05-0.09c-0.2-0.37-0.41-0.74-0.63-1.11
						c-0.06-0.11-0.13-0.22-0.19-0.33c-0.17-0.26-0.34-0.52-0.51-0.78c-0.07-0.12-0.16-0.25-0.24-0.37
						c-0.19-0.26-0.38-0.53-0.57-0.79c-0.07-0.1-0.15-0.2-0.22-0.3c-0.18-0.23-0.36-0.44-0.55-0.67c-0.12-0.15-0.23-0.3-0.36-0.44
						c-0.08-0.09-0.16-0.18-0.24-0.27c-0.3-0.32-0.6-0.64-0.89-0.95c-0.19-0.18-0.38-0.36-0.56-0.54c-0.12-0.11-0.25-0.23-0.36-0.34
						c-0.22-0.19-0.44-0.38-0.66-0.56c-0.11-0.1-0.23-0.2-0.35-0.29c-0.24-0.19-0.5-0.37-0.75-0.56c-0.1-0.07-0.2-0.15-0.29-0.21
						c-0.36-0.24-0.71-0.48-1.08-0.69l2.43-1.41c0.36,0.21,0.72,0.43,1.08,0.68c0.09,0.07,0.2,0.14,0.29,0.21
						c0.25,0.18,0.51,0.36,0.76,0.56c0.11,0.1,0.24,0.2,0.35,0.3c0.22,0.18,0.44,0.36,0.66,0.56c0.13,0.12,0.25,0.23,0.37,0.35
						c0.13,0.11,0.26,0.23,0.38,0.35c0.06,0.06,0.11,0.11,0.16,0.17c0.31,0.31,0.62,0.64,0.91,0.97c0.06,0.07,0.12,0.13,0.19,0.19
						c0.01,0.02,0.02,0.04,0.04,0.06c0.15,0.16,0.29,0.33,0.43,0.52c0.14,0.17,0.28,0.33,0.43,0.51c0.02,0.03,0.03,0.04,0.05,0.07
						c0.09,0.11,0.17,0.23,0.25,0.34c0.15,0.2,0.29,0.39,0.43,0.59c0.04,0.06,0.09,0.12,0.12,0.19c0.08,0.11,0.15,0.22,0.23,0.33
						c0.09,0.14,0.19,0.28,0.28,0.43c0.08,0.13,0.16,0.26,0.25,0.39c0.06,0.11,0.12,0.21,0.18,0.31c0.04,0.06,0.09,0.13,0.12,0.2
						c0.18,0.3,0.35,0.6,0.51,0.9c0,0.01,0.01,0.01,0.01,0.03c0,0.01,0.01,0.01,0.01,0.02c0.15,0.27,0.3,0.56,0.43,0.83
						c0.04,0.09,0.08,0.17,0.12,0.27c0.05,0.1,0.1,0.21,0.15,0.31c0.04,0.11,0.09,0.2,0.13,0.32c0.1,0.22,0.18,0.45,0.28,0.67
						c0.02,0.06,0.05,0.13,0.07,0.19c0.01,0.01,0.02,0.03,0.02,0.04c0.12,0.31,0.24,0.63,0.34,0.95c0.02,0.05,0.03,0.1,0.05,0.15
						c0.04,0.12,0.08,0.24,0.11,0.35c0.05,0.17,0.1,0.34,0.16,0.51c0.02,0.1,0.05,0.22,0.06,0.32c0.05,0.16,0.08,0.33,0.13,0.49
						c0.02,0.11,0.05,0.21,0.07,0.32c0.02,0.11,0.04,0.22,0.06,0.33c0.05,0.24,0.09,0.49,0.13,0.74c0.01,0.1,0.03,0.2,0.04,0.3
						c0.02,0.13,0.03,0.27,0.04,0.4c0.01,0.12,0.03,0.23,0.04,0.35c0.03,0.37,0.05,0.75,0.05,1.11c-0.02,3.11-1.13,5.29-2.96,6.35
						l-2.43,1.41C368.36,284.36,369.47,282.18,369.48,279.08z"/>
				</g>
				<g>
					<g>
						<path class="st24" d="M358.51,260.87l-0.01,3.16c4.45,2.57,8.06,8.54,8.05,13.35c-0.02,4.79-3.64,6.58-8.1,4.01l-0.01,3.16
							c6.09,3.51,11.03,1.06,11.05-5.48C369.51,272.54,364.58,264.39,358.51,260.87z"/>
					</g>
				</g>
			</g>
		</g>
		<g>
			<g>
				<polygon class="st25" points="251.78,61.34 253.7,60.23 253.7,61.85 251.78,62.97 				"/>
			</g>
			<g>
				<polygon class="st25" points="251.79,57.14 253.72,56.02 253.71,57.65 251.79,58.76 				"/>
			</g>
			<g>
				<polygon class="st25" points="251.81,52.73 253.73,51.62 253.72,53.23 251.8,54.35 				"/>
			</g>
			<g>
				<polygon class="st26" points="251.78,62.97 253.7,61.85 302.1,89.8 300.18,90.91 				"/>
			</g>
			<g>
				<polygon class="st27" points="251.78,61.34 253.7,60.23 302.1,88.17 300.18,89.29 				"/>
			</g>
			<g>
				<polygon class="st28" points="300.18,89.29 302.1,88.17 302.1,89.8 300.18,90.91 				"/>
			</g>
			<g>
				<polygon class="st26" points="251.79,58.76 253.71,57.65 302.11,85.59 300.19,86.71 				"/>
			</g>
			<g>
				<polygon class="st27" points="251.79,57.14 253.72,56.02 302.12,83.97 300.19,85.08 				"/>
			</g>
			<g>
				<polygon class="st28" points="300.19,85.08 302.12,83.97 302.11,85.59 300.19,86.71 				"/>
			</g>
			<g>
				<polygon class="st26" points="251.8,54.35 253.72,53.23 302.13,81.18 300.2,82.29 				"/>
			</g>
			<g>
				<polygon class="st28" points="300.21,80.68 302.13,79.56 302.13,81.18 300.2,82.29 				"/>
			</g>
			<g>
				<polygon class="st29" points="300.21,80.68 300.2,82.29 251.8,54.35 251.81,52.73 				"/>
			</g>
			<g>
				<polygon class="st27" points="251.81,52.73 253.73,51.62 302.13,79.56 300.21,80.68 				"/>
			</g>
			<g>
				<path class="st30" d="M299.71,76.47c1.78,1.03,3.23,3.52,3.22,5.57l-0.03,10.69c0,0.13-0.03,0.24-0.04,0.37l-0.09,13.1
					l-10.56-15.92l-40.07-23.14c-1.78-1.02-3.22-3.51-3.22-5.57l0.03-10.7c0.01-2.05,1.45-2.87,3.24-1.84L299.71,76.47z
					 M300.2,82.29l0.01-1.62l-48.4-27.95l0,1.62L300.2,82.29L300.2,82.29z M300.18,90.91l0-1.62l-48.4-27.95l0,1.63L300.18,90.91
					L300.18,90.91z M300.19,86.71v-1.63l-48.4-27.94l0,1.62L300.19,86.71L300.19,86.71z"/>
			</g>
			<g>
				<polygon class="st29" points="300.18,89.29 300.18,90.91 251.78,62.97 251.78,61.34 				"/>
			</g>
			<g>
				<polygon class="st29" points="300.19,85.08 300.19,86.71 251.79,58.76 251.79,57.14 				"/>
			</g>
			<path class="st17" d="M304.85,80.78c0-0.05,0-0.11-0.01-0.16c0-0.05,0-0.1-0.01-0.16c0-0.05-0.01-0.11-0.02-0.16
				c-0.01-0.06-0.02-0.11-0.02-0.16c-0.01-0.05-0.02-0.11-0.03-0.17c-0.01-0.05-0.02-0.11-0.03-0.17c-0.01-0.05-0.03-0.11-0.04-0.17
				c-0.02-0.06-0.03-0.12-0.05-0.17c-0.01-0.05-0.02-0.1-0.03-0.14c0,0,0-0.01-0.01-0.02c0,0,0-0.01-0.01-0.02
				c-0.02-0.06-0.04-0.11-0.06-0.17c-0.02-0.05-0.04-0.11-0.06-0.16c-0.02-0.05-0.04-0.11-0.06-0.16c-0.02-0.05-0.04-0.11-0.06-0.16
				c-0.02-0.04-0.04-0.08-0.06-0.12c0,0,0-0.01,0-0.02c0-0.01-0.01-0.01-0.01-0.02c-0.02-0.05-0.05-0.1-0.07-0.15
				c-0.03-0.05-0.05-0.11-0.08-0.17c-0.03-0.06-0.06-0.12-0.1-0.19c-0.03-0.07-0.08-0.14-0.12-0.21c0-0.01-0.01-0.02-0.01-0.03
				c-0.01-0.01-0.02-0.02-0.02-0.03c-0.08-0.13-0.16-0.26-0.25-0.39c-0.06-0.1-0.13-0.19-0.21-0.29l0,0c0-0.01,0-0.01-0.01-0.01
				c-0.04-0.06-0.09-0.12-0.13-0.18c-0.04-0.05-0.08-0.11-0.13-0.16c-0.04-0.04-0.08-0.1-0.12-0.15c-0.04-0.04-0.09-0.09-0.13-0.13
				c-0.01-0.01-0.02-0.02-0.03-0.03c-0.01-0.01-0.01-0.01-0.01-0.02c-0.03-0.03-0.06-0.07-0.09-0.1c-0.04-0.05-0.09-0.09-0.13-0.14
				c-0.05-0.04-0.1-0.09-0.15-0.13c-0.05-0.04-0.1-0.09-0.15-0.13c-0.02-0.02-0.05-0.04-0.07-0.06c-0.01-0.01-0.01-0.01-0.02-0.02
				c-0.02-0.01-0.03-0.03-0.05-0.04c-0.05-0.04-0.09-0.07-0.14-0.11c-0.05-0.04-0.1-0.07-0.14-0.1c-0.05-0.03-0.09-0.06-0.14-0.09
				c-0.05-0.03-0.09-0.06-0.14-0.09c-0.01-0.01-0.02-0.01-0.03-0.02l-47.52-27.43c-0.03-0.02-0.07-0.04-0.1-0.06
				c-0.05-0.02-0.09-0.05-0.14-0.06c-0.04-0.02-0.08-0.04-0.13-0.06c-0.05-0.02-0.09-0.04-0.13-0.06c-0.05-0.02-0.09-0.03-0.13-0.05
				c-0.01,0-0.01-0.01-0.02-0.01c-0.01,0-0.01,0-0.02-0.01c-0.03-0.01-0.06-0.02-0.09-0.03c-0.04-0.01-0.09-0.02-0.14-0.04
				c-0.04-0.01-0.09-0.02-0.13-0.03c-0.05-0.01-0.09-0.02-0.15-0.02c-0.02-0.01-0.06-0.01-0.09-0.01c-0.01,0-0.01,0-0.01,0
				c-0.02,0-0.02,0-0.04,0c-0.06,0-0.1-0.01-0.15,0c-0.06,0-0.11,0-0.17,0.01c-0.06,0.01-0.12,0.02-0.18,0.03c-0.01,0-0.01,0-0.01,0
				v0c-0.08,0.01-0.15,0.04-0.22,0.06c-0.1,0.03-0.18,0.07-0.26,0.12c-0.64,0.38-1.29,0.75-1.93,1.12c0.14-0.08,0.31-0.15,0.48-0.18
				c0,0,0,0,0.01,0c0.17-0.04,0.35-0.04,0.55-0.03c0,0,0.01,0,0.01,0c0.19,0.02,0.39,0.06,0.6,0.13c0.01,0,0.01,0,0.01,0
				c0.21,0.07,0.43,0.18,0.65,0.3l47.51,27.43c0.22,0.13,0.44,0.27,0.64,0.44c0,0.01,0.02,0.02,0.02,0.02
				c0.2,0.17,0.4,0.35,0.59,0.55c0.01,0,0.01,0.01,0.01,0.01c0.19,0.21,0.37,0.42,0.55,0.65c0.17,0.23,0.32,0.48,0.47,0.72
				c0.01,0,0.01,0.01,0.01,0.02c0.14,0.24,0.27,0.5,0.39,0.76c0,0,0,0.01,0,0.01c0.11,0.26,0.21,0.52,0.29,0.79c0,0,0,0,0,0.01
				c0.17,0.54,0.25,1.08,0.25,1.59l-0.03,10.69c0,0.13-0.03,0.24-0.04,0.37l-0.09,13.1l1.93-1.12l0.08-13.1
				c0-0.02,0.01-0.05,0.01-0.07c0.01-0.04,0.01-0.07,0.01-0.11c0.01-0.03,0.01-0.05,0.01-0.09c0-0.02,0-0.04,0-0.05
				c0-0.01,0-0.03,0-0.04v0l0.03-10.7C304.85,80.87,304.85,80.82,304.85,80.78z"/>
		</g>
		<g>
			<g>
				<polygon class="st25" points="311.75,58.66 313.5,57.64 313.5,59.12 311.74,60.14 				"/>
			</g>
			<g>
				<polygon class="st25" points="311.76,54.83 313.51,53.81 313.51,55.29 311.75,56.31 				"/>
			</g>
			<g>
				<polygon class="st25" points="311.77,50.81 313.52,49.79 313.51,51.27 311.77,52.29 				"/>
			</g>
			<g>
				<polygon class="st26" points="311.74,60.14 313.5,59.12 357.63,84.6 355.88,85.63 				"/>
			</g>
			<g>
				<polygon class="st27" points="311.75,58.66 313.5,57.64 357.63,83.13 355.88,84.14 				"/>
			</g>
			<g>
				<polygon class="st29" points="355.88,84.14 355.88,85.63 311.74,60.14 311.75,58.66 				"/>
			</g>
			<g>
				<polygon class="st28" points="355.88,84.14 357.63,83.13 357.63,84.6 355.88,85.63 				"/>
			</g>
			<g>
				<polygon class="st26" points="311.75,56.31 313.51,55.29 357.64,80.77 355.88,81.79 				"/>
			</g>
			<g>
				<polygon class="st27" points="311.76,54.83 313.51,53.81 357.64,79.29 355.89,80.31 				"/>
			</g>
			<g>
				<polygon class="st28" points="355.89,80.31 357.64,79.29 357.64,80.77 355.88,81.79 				"/>
			</g>
			<g>
				<polygon class="st26" points="311.77,52.29 313.51,51.27 357.65,76.75 355.9,77.77 				"/>
			</g>
			<g>
				<polygon class="st27" points="311.77,50.81 313.52,49.79 357.65,75.27 355.9,76.29 				"/>
			</g>
			<g>
				<polygon class="st28" points="355.9,76.29 357.65,75.27 357.65,76.75 355.9,77.77 				"/>
			</g>
			<g>
				<path class="st30" d="M355.57,72.52c1.62,0.94,2.93,3.2,2.93,5.07l-0.03,9.76c-0.01,1.87-1.33,2.61-2.95,1.68l-36.53-21.1
					l-9.68,3.37l-0.01-11.98c-0.01-0.13-0.03-0.25-0.03-0.37l0.03-9.75c0-1.87,1.33-2.62,2.95-1.68L355.57,72.52z M355.88,81.79
					l0-1.48l-44.13-25.48l0,1.48L355.88,81.79L355.88,81.79z M355.88,85.63l0-1.48l-44.13-25.48l-0.01,1.48L355.88,85.63
					L355.88,85.63z M355.9,77.77l0-1.48l-44.13-25.48l0,1.48L355.9,77.77L355.9,77.77z"/>
			</g>
			<g>
				<polygon class="st29" points="355.89,80.31 355.88,81.79 311.75,56.31 311.76,54.83 				"/>
			</g>
			<g>
				<polygon class="st29" points="355.9,76.29 355.9,77.77 311.77,52.29 311.77,50.81 				"/>
			</g>
			<path class="st17" d="M360.25,76.44c0-0.04,0-0.09,0-0.14c-0.01-0.05-0.01-0.09-0.02-0.14c0-0.05-0.01-0.09-0.02-0.14
				c-0.01-0.05-0.01-0.1-0.02-0.15c-0.01-0.05-0.02-0.1-0.03-0.15c-0.01-0.05-0.02-0.1-0.03-0.15c-0.01-0.05-0.02-0.1-0.04-0.15
				c-0.01-0.05-0.03-0.1-0.04-0.16c-0.01-0.04-0.02-0.08-0.04-0.12c0-0.01,0-0.01,0-0.01c0,0,0-0.01-0.01-0.02
				c-0.01-0.05-0.03-0.1-0.05-0.15c-0.02-0.05-0.03-0.1-0.05-0.15c-0.02-0.05-0.03-0.1-0.06-0.14c-0.02-0.05-0.04-0.1-0.06-0.14
				c-0.02-0.04-0.03-0.07-0.05-0.11c-0.01,0-0.01,0-0.01-0.01c0-0.01,0-0.01-0.01-0.02c-0.02-0.05-0.04-0.09-0.06-0.14
				c-0.03-0.05-0.05-0.11-0.08-0.16c-0.03-0.06-0.06-0.11-0.1-0.17c-0.03-0.07-0.06-0.13-0.1-0.19c-0.01-0.01-0.01-0.02-0.02-0.04
				c-0.01-0.01-0.02-0.02-0.02-0.04c-0.07-0.12-0.14-0.23-0.22-0.35c-0.06-0.09-0.12-0.18-0.19-0.27c-0.04-0.05-0.09-0.11-0.13-0.17
				c-0.04-0.05-0.07-0.09-0.12-0.14c-0.04-0.04-0.07-0.09-0.11-0.13c-0.04-0.04-0.07-0.08-0.11-0.13c-0.01-0.01-0.02-0.01-0.02-0.02
				c-0.01,0-0.01-0.01-0.02-0.01c-0.02-0.03-0.05-0.06-0.08-0.09c-0.04-0.04-0.08-0.08-0.12-0.12c-0.04-0.04-0.08-0.08-0.13-0.12
				c-0.05-0.04-0.09-0.07-0.13-0.11c-0.02-0.01-0.04-0.03-0.06-0.05c-0.01-0.01-0.01-0.01-0.02-0.02c-0.02-0.01-0.03-0.03-0.04-0.04
				c-0.04-0.04-0.09-0.07-0.13-0.1c-0.04-0.03-0.08-0.06-0.12-0.09c-0.05-0.03-0.08-0.06-0.13-0.08c-0.04-0.02-0.08-0.05-0.12-0.08
				c-0.01-0.01-0.02-0.01-0.03-0.02L314,46.5c-0.03-0.02-0.06-0.04-0.09-0.06c-0.04-0.02-0.08-0.04-0.12-0.06
				c-0.04-0.02-0.08-0.04-0.12-0.06c-0.04-0.02-0.08-0.03-0.12-0.05c-0.04-0.02-0.08-0.03-0.12-0.05c-0.01,0-0.01,0-0.02,0
				c0,0-0.01,0-0.01,0c-0.03-0.01-0.06-0.02-0.09-0.03c-0.04-0.01-0.08-0.02-0.12-0.04c-0.04-0.01-0.08-0.02-0.12-0.02
				c-0.04-0.01-0.09-0.02-0.13-0.02c-0.03,0-0.06,0-0.09-0.01c0,0-0.01,0-0.01,0c-0.01,0-0.02-0.01-0.03-0.01c-0.04,0-0.09,0-0.14,0
				c-0.05,0-0.11,0-0.15,0.01c-0.06,0.01-0.12,0.01-0.17,0.02h-0.01h0c-0.06,0.01-0.13,0.03-0.2,0.05
				c-0.08,0.03-0.16,0.07-0.24,0.11c-0.52,0.3-1.05,0.61-1.58,0.92c-0.05,0.03-0.12,0.07-0.18,0.1c0.13-0.08,0.28-0.13,0.44-0.16
				c0-0.01,0-0.01,0-0.01c0.16-0.03,0.32-0.04,0.5-0.02c0,0,0,0,0.01,0c0.18,0.02,0.36,0.05,0.55,0.12c0,0,0.01,0,0.01,0
				c0.19,0.07,0.39,0.16,0.59,0.27l43.32,25.01c0.2,0.12,0.4,0.25,0.59,0.41c0,0,0,0,0.01,0.01c0.19,0.15,0.37,0.32,0.54,0.51
				c0,0,0.01,0,0.01,0.01c0.35,0.37,0.66,0.8,0.92,1.25c0.01,0.01,0.01,0.02,0.02,0.03c0.13,0.22,0.25,0.45,0.35,0.69l0,0
				c0.11,0.24,0.19,0.49,0.27,0.73c0,0,0,0,0,0.01c0.15,0.49,0.23,0.98,0.23,1.45l-0.03,9.76c0,0.23-0.02,0.44-0.07,0.63
				c0,0.01,0,0.01,0,0.02c-0.04,0.19-0.1,0.37-0.16,0.52c0,0,0,0.01,0,0.01c-0.06,0.13-0.14,0.23-0.22,0.34
				c-0.03,0.04-0.06,0.07-0.09,0.1c-0.09,0.1-0.2,0.19-0.32,0.27c0.58-0.34,1.17-0.68,1.75-1.02c0.12-0.07,0.23-0.17,0.32-0.26
				c0.03-0.03,0.05-0.07,0.08-0.1c0.04-0.04,0.08-0.09,0.11-0.13c0.04-0.06,0.08-0.13,0.11-0.2c0,0,0,0,0-0.01c0,0,0,0,0.01,0
				c0.02-0.05,0.04-0.1,0.06-0.15c0.02-0.05,0.04-0.1,0.05-0.16c0.01-0.05,0.02-0.1,0.04-0.15c0.01-0.02,0.01-0.04,0.01-0.06
				c0-0.01,0.01-0.01,0.01-0.02c0-0.02,0.01-0.04,0.01-0.06c0.01-0.05,0.02-0.1,0.02-0.14c0.01-0.05,0.01-0.1,0.02-0.15
				c0-0.04,0.01-0.09,0.01-0.14c0-0.05,0-0.09,0-0.14c0,0,0-0.01,0-0.01l0.03-9.76C360.25,76.54,360.25,76.49,360.25,76.44z"/>
		</g>
		<g>
			<g class="st5">
				<g>
					<path d="M425.72,241.37c11.11,6.41,11.14,16.79,0.15,23.18c-11.01,6.41-28.87,6.41-39.99-0.02
						c-11.08-6.39-11.12-16.76-0.13-23.14C396.75,235,414.66,234.99,425.72,241.37z"/>
				</g>
			</g>
			<linearGradient id="SVGID_6_" gradientUnits="userSpaceOnUse" x1="411.3104" y1="226.1893" x2="412.3343" y2="296.8357">
				<stop  offset="0" style="stop-color:#43D9E5"/>
				<stop  offset="0.2589" style="stop-color:#3FD4E4"/>
				<stop  offset="0.5575" style="stop-color:#33C6E1"/>
				<stop  offset="0.8747" style="stop-color:#20AFDD"/>
				<stop  offset="1" style="stop-color:#17A4DB"/>
			</linearGradient>
			<path class="st31" d="M439.5,220.64l-56.53,0.89l6.8,35.05h0.1c0.47,2.78,2.54,5.49,6.24,7.62c8.42,4.86,21.99,4.86,30.33,0.01
				c3.67-2.13,5.72-4.85,6.16-7.63h0.02L439.5,220.64z"/>
			<g>
				<g>
					<path class="st32" d="M431.15,209.06c11.11,6.41,11.14,16.79,0.15,23.18c-11.01,6.39-28.87,6.39-39.98-0.03
						c-11.09-6.4-11.14-16.75-0.14-23.13C402.18,202.69,420.08,202.68,431.15,209.06z"/>
				</g>
			</g>
			<g>
				<g>
					<linearGradient id="SVGID_7_" gradientUnits="userSpaceOnUse" x1="389.7744" y1="220.655" x2="431.113" y2="220.655">
						<stop  offset="0" style="stop-color:#6474D6"/>
						<stop  offset="1" style="stop-color:#1B4B92"/>
					</linearGradient>
					<path class="st33" d="M425.01,212.18c8.13,4.69,8.13,12.25,0.08,16.94c-8.02,4.67-21.1,4.67-29.22-0.02
						c-8.09-4.68-8.14-12.23-0.1-16.92C403.82,207.53,416.91,207.52,425.01,212.18z"/>
				</g>
			</g>
			<linearGradient id="SVGID_8_" gradientUnits="userSpaceOnUse" x1="390.0023" y1="80.1254" x2="400.2412" y2="251.1144">
				<stop  offset="0" style="stop-color:#1B4B92"/>
				<stop  offset="1" style="stop-color:#6474D6"/>
			</linearGradient>
			<path class="st34" d="M401.4,212.56c-4.84-6.93-26.62-11.76-18.43-28.33c8.19-16.58-3.7-16.75-8.28-33.13
				c-4.58-16.38,12.97-7.77,6.71-30.46c-6.35-23.03,4.77-33.34,14.2-27.13c12.54,8.24,18.89,26.97,17.31,46.41
				c-1.58,19.45-1.89,21.06,0.97,40.27c2.86,19.21-4.46,42.23-8.09,43.26C402.19,224.47,403.09,214.97,401.4,212.56z"/>
			<path class="st35" d="M403.73,188.73l-0.11-0.14c-0.31-2.72-0.64-5.45-1-8.19l3.76-13.55l-0.9-0.25l-3.17,11.43
				c-0.91-6.78-1.95-13.51-3.03-19.94l-0.12,1.24l4.19-15.15l-0.9-0.25L399,156.39c-1.14-6.72-2.29-13.05-3.37-18.67l3.85-13.9
				l-0.9-0.25l-3.35,12.08c-2.44-12.53-4.35-21-4.41-21.24l-0.91,0.21c0.06,0.26,2.23,9.86,4.89,23.72l-7.42-9.99l-0.75,0.55
				l8.57,11.54c1.37,7.23,2.84,15.49,4.2,24.14l-8.19-11.02l-0.75,0.56l9.31,12.86l-0.24-1.54c0.77,4.88,1.49,9.88,2.15,14.88
				l-0.07,0.24l0.11,0.03c0.28,2.17,0.55,4.34,0.8,6.5l-7.43-10l-0.75,0.56l8.4,11.29c1.41,12.56,2.22,24.68,1.8,34.48l0.93,0.04
				c0.42-9.86-0.4-22.06-1.82-34.68L403.73,188.73z"/>
			<linearGradient id="SVGID_9_" gradientUnits="userSpaceOnUse" x1="407.0636" y1="171.6585" x2="455.1646" y2="171.6585">
				<stop  offset="0" style="stop-color:#6474D6"/>
				<stop  offset="1" style="stop-color:#1B4B92"/>
			</linearGradient>
			<path class="st36" d="M415.17,215.92c5.38-4.67,24.18-4.17,20.87-19.4c-3.31-15.23,6.45-12.94,13.55-25.4
				c7.1-12.46-9.02-9,0.74-26.29c9.91-17.53,2.92-28.24-6.07-25.1c-11.94,4.18-20.96,18.2-23.65,34.42
				c-2.69,16.23-2.77,17.61-9.03,32.74c-6.27,15.12-4.99,35.45-2.24,37.03C412.09,225.5,413.3,217.55,415.17,215.92z"/>
			<path class="st35" d="M418.15,195.95l0.11-0.09c0.8-2.16,1.64-4.33,2.49-6.49l-0.31-11.85l0.79-0.02l0.26,10
				c2.13-5.36,4.36-10.65,6.55-15.69l-0.15,1.03l-0.33-13.24l0.79-0.02l0.28,10.9c2.31-5.27,4.55-10.2,6.58-14.58l-0.31-12.15
				l0.79-0.02l0.27,10.57c4.56-9.75,7.86-16.29,7.95-16.47l0.7,0.35c-0.1,0.2-3.84,7.61-8.85,18.41l8.12-6.66l0.5,0.61l-9.37,7.68
				c-2.6,5.64-5.49,12.09-8.38,18.89l8.95-7.34l0.5,0.61l-10.24,8.61l0.51-1.21c-1.63,3.84-3.24,7.78-4.8,11.73l0,0.21l-0.09,0.01
				c-0.67,1.72-1.34,3.43-1.99,5.14l8.13-6.66l0.5,0.61l-9.18,7.52c-3.72,9.98-6.87,19.73-8.53,27.83l-0.77-0.15
				c1.67-8.15,4.84-17.96,8.58-27.99L418.15,195.95z"/>
		</g>
		<g>
			<g class="st37">
				<g>
					<polygon class="st38" points="279.45,133.94 283.95,131.32 251.6,88.66 247.1,91.28 					"/>
				</g>
				<g>
					<polygon class="st39" points="311.92,128.7 316.43,126.08 283.95,131.32 279.45,133.94 					"/>
				</g>
				<g>
					<polygon class="st40" points="311.78,176.6 316.29,173.99 316.43,126.08 311.92,128.7 					"/>
				</g>
				<g>
					<polygon class="st41" points="247.1,91.28 279.45,133.94 311.92,128.7 					"/>
				</g>
				<g>
					<polygon class="st42" points="311.92,128.7 316.43,126.08 251.6,88.66 247.1,91.28 					"/>
				</g>
				<g>
					<polygon class="st43" points="247.1,91.28 246.97,139.18 311.78,176.6 311.92,128.7 279.45,133.94 					"/>
				</g>
			</g>
		</g>
		<g>
			<g class="st37">
				<g>
					<polygon class="st38" points="305.59,200.35 308.59,198.61 287.08,170.24 284.09,171.98 					"/>
				</g>
				<g>
					<polygon class="st39" points="327.18,196.86 330.18,195.12 308.59,198.61 305.59,200.35 					"/>
				</g>
				<g>
					<polygon class="st40" points="327.09,228.71 330.09,226.97 330.18,195.12 327.18,196.86 					"/>
				</g>
				<g>
					<polygon class="st41" points="284.09,171.98 305.59,200.35 327.18,196.86 					"/>
				</g>
				<g>
					<polygon class="st42" points="327.18,196.86 330.18,195.12 287.08,170.24 284.09,171.98 					"/>
				</g>
				<g>
					<polygon class="st43" points="284.09,171.98 284,203.83 327.09,228.71 327.18,196.86 305.59,200.35 					"/>
				</g>
			</g>
		</g>
		<g>
			<g>
				<g>
					<path class="st44" d="M216.34,117.65c0,0,1.78-4.87,8.77-2.6c6.98,2.27,13.68,5.47,13.68,5.47l14.76-8.25
						c0,0,2.88,1.47,2.88,3.68c0,0-11.8,11.65-18.2,12.31C238.23,128.26,210.96,127.92,216.34,117.65z"/>
				</g>
				<g>
					<path class="st45" d="M254.11,112.61c0,0,1.56-3.42,2.9-4.42c1.34-1,2.51-1.32,2.96-1.36c0.46-0.04-0.89,1.39-1.34,1.84
						c-0.45,0.45-0.7,1.98,2.86,0.32c3.55-1.67,2.89-0.92,2.83-0.6c-0.05,0.33-3.67,5.9-7.94,7.15
						C256.39,115.54,256.09,114.04,254.11,112.61z"/>
				</g>
				<g>
					<path class="st46" d="M238.23,128.26c6.4-0.65,18.2-12.31,18.2-12.31c0-0.61-0.23-1.17-0.55-1.65
						c-2.65,2.1-10.4,8.18-15.16,11.18c-5.8,3.65-24.98-5.71-25.02-5.89C214.51,127.96,238.23,128.26,238.23,128.26z"/>
				</g>
			</g>
			<g>
				<path class="st47" d="M227.97,219.41c0,0,2.95,0.44,2.23,2.14c-0.71,1.69-4.11,4.27-4.54,5.35c-0.45,1.07-3.21,4.89-4.09,4.54
					c-0.9-0.36-3.21,0.17-2.95-4.19C218.89,222.88,224.05,219.23,227.97,219.41z"/>
			</g>
			<g>
				<path class="st47" d="M233.59,235.45c0,0-1.43,4.2,2.14,5.17c3.56,0.98,2.49-1.25,10.25,0.7c7.75,1.96,8.64-2.04,8.46-2.93
					c-0.18-0.9-5.35-2.5-7.04-2.94c-1.69-0.44-4.9-1.25-4.9-1.25h-9.19L233.59,235.45z"/>
			</g>
			<g>
				<path class="st48" d="M218.94,161.92c0,0-0.05,25.29-0.05,28.14c0,2.85-3.18,25.3-1.27,35.1c0,0,5.51,5.53,10.39,0
					c0,0,1.56-28.1,2.98-34.44c1.4-6.34,0.93-25.73,0.93-25.73L218.94,161.92z"/>
			</g>
			<g>
				<path class="st48" d="M228.62,165.51c0,0,1.25,16.33,2.55,32.53c0,0,0.81,32.14,1.58,36.77c0,0,10.36,2.57,11.4-2.31
					c0,0-0.25-28.29,0-34.2c0.27-5.92,1.67-24.45-0.66-33.96C241.15,154.83,228.62,165.51,228.62,165.51z"/>
			</g>
			<g>
				<path class="st49" d="M232.75,234.81c-0.77-4.63-1.58-36.77-1.58-36.77c-0.87-10.9-1.86-23.68-2.33-29.68l7.03,1.36
					c0,0,4.12,14.14,3.43,32.31c-0.54,14.06-0.78,27.91-0.85,33.45C235.59,235.52,232.75,234.81,232.75,234.81z"/>
			</g>
			<g>
				<path class="st49" d="M217.63,225.16c-1.91-9.8,1.27-32.25,1.27-35.1c0-2.71,0.04-25.77,0.05-27.95l5.57,4.28
					c0,0,1.76,18.08,0,28.38c-1.61,9.37-0.57,27.62-1.36,32.85C220.08,227.61,217.63,225.16,217.63,225.16z"/>
			</g>
			<g>
				<path class="st44" d="M217.4,115.98c0,0-5.35,2.67-2.32,11.76c3.02,9.09,5.16,14.97,4.98,18.35
					c-0.17,3.39-1.03,15.92-1.74,18.24c0,0-0.41,3.89,14.12,5.85c0,0,13.1,1.53,10.79-7.73c-2.32-9.27-0.53-19.37-0.18-22.94
					c0.36-3.57,2.5-10.69-6.41-15.5C227.72,119.19,223.09,115.63,217.4,115.98z"/>
			</g>
			<g>
				<g>
					<path class="st45" d="M223.72,111.49c0,0,0.56,4.75-1.07,7.72c-1.48,2.69,9.71,5.15,9.97,2.66c0.03-0.26-2.12-4.36,0.57-9.2
						C234.62,110.14,223.72,111.49,223.72,111.49z"/>
				</g>
				<g>
					<path class="st50" d="M222.71,119.38c1.21-2.21,1.21-5.4,1.13-6.89l8.16,4.05c0,0.01,0,0.01,0,0.02
						c-0.3,0.07-5.82,1.47-7.01,5.44C223.32,121.31,222.18,120.36,222.71,119.38z"/>
				</g>
				<g>
					<path class="st45" d="M235.5,98.88c0,0,1.74,4.31,1.39,8.02c-0.37,3.99,0.23,4.8-0.03,6.58c-0.11,0.76-0.17,1.91-0.91,2.62
						c-1.23,1.19-3.77,1.63-7.23,0.37c-4.16-1.53-8.55-7.26-6.77-12.4C223.75,98.92,229.23,94.69,235.5,98.88z"/>
				</g>
				<g>
					<path class="st51" d="M222.15,109.64c1.68-4.64,5.81-10.19,5.78-10.48c-0.02-0.18,1.36-1.05,2.92-1.97
						c1.46,0.09,3.03,0.61,4.65,1.69c0,0,0.47,1.15,0.87,2.77c-0.99,1.12-3.01,2.38-3.31,3.32c-0.72,2.22-0.32,5.58,0.35,7.06
						c0.66,1.49-2.01,3.67-1.45,4.98c0.02,0.07,0.02,0.13,0.01,0.18c-0.95-0.07-2.03-0.29-3.22-0.72
						C226.08,115.5,223.32,112.8,222.15,109.64z"/>
				</g>
				<g>
					<path class="st52" d="M236.73,97.12c0,0,0.6,3.69-3.03,5.48c-2.2,1.07-1.99,4.6-1.89,5.24c0.11,0.66,0.75,3.63,0.48,4.02
						c-0.51,0.73-2.22-1.56-3.03-1.4c-2.07,0.41-1.26,2.33,0.62,4.36c2,2.15-3.27,3.03-5.7,1.26c-1.3-0.94-1.77-1.51-3.47-4.89
						c-2.48-4.93-2.6-10.85,3.23-14C229.75,94.02,233.11,98.55,236.73,97.12z"/>
				</g>
				<g>
					<path class="st53" d="M224.17,116.07c-1.3-0.94-1.77-1.51-3.47-4.89c-2.48-4.93-2.6-10.85,3.23-14
						c5.83-3.16,9.19,1.37,12.8-0.06c0,0,0.11,0.62-0.03,1.48c-1.84,0.3-6.89,1.3-8.2,3.47c-1.6,2.67-3.38,1.81-3.25,5.13
						c0.12,3.2-0.7,7.39,4.68,9.21C227.92,117.84,225.11,116.76,224.17,116.07z"/>
				</g>
			</g>
			<g>
				<path class="st54" d="M232,120.39l3.64,3.07c0,0-11.34,3.24-14.67-2.31c-0.47-0.79,0.1-3.42,2.08-3.91
					C223.05,117.24,223.44,121.76,232,120.39z"/>
			</g>
			<g>
				<path class="st46" d="M243.22,162.45c-2.32-9.27-0.53-19.37-0.18-22.94c0.36-3.53,2.44-10.55-6.17-15.36
					c-2.99,1.82-7.33,5.74-4.87,12.36c3.04,8.2,4.04,25.96,4.64,33.65C240.25,169.74,244.64,168.13,243.22,162.45z"/>
			</g>
			<g>
				<g>
					<path class="st44" d="M231.98,129.32c0,0-0.37-4.66,6.22-5.42c6.59-0.76,13.3-0.66,13.3-0.66l9.01-12.34
						c0,0,2.92,0.13,3.75,1.95c0,0-5.3,14-10.31,16.95C253.94,129.8,231.43,139.79,231.98,129.32z"/>
				</g>
				<g>
					<path class="st45" d="M261.09,110.97c0,0,0-3.4,0.73-4.72c0.72-1.33,1.57-2.03,1.93-2.23c0.36-0.21-0.22,1.47-0.41,2.01
						c-0.2,0.53,0.16,1.89,2.46-0.82c2.29-2.71,2.02-1.84,2.1-1.55c0.08,0.29-0.8,6.24-3.83,8.86
						C264.08,112.53,263.26,111.4,261.09,110.97z"/>
				</g>
				<g>
					<path class="st46" d="M253.94,129.8c5.01-2.94,10.31-16.95,10.31-16.95c-0.23-0.51-0.63-0.87-1.08-1.16
						c-1.38,2.72-5.46,10.63-8.24,14.89c-3.4,5.18-22.66,4.71-22.76,4.57C234.36,138.49,253.94,129.8,253.94,129.8z"/>
				</g>
			</g>
		</g>
	</g>
	<g>
		<path class="st55" d="M326.47,95.48c-0.16-0.04-0.32-0.07-0.48-0.09c-0.03,0-0.05-0.01-0.08-0.01c-0.16-0.01-0.32-0.02-0.47,0
			c-0.14,0.01-0.27,0.04-0.4,0.08c-0.02,0-0.03,0.01-0.05,0.01c-0.12,0.04-0.24,0.09-0.35,0.16l3.55-2.06
			c0.01,0,0.02-0.01,0.02-0.01c0.07-0.03,0.13-0.06,0.2-0.1c0.04-0.02,0.08-0.03,0.12-0.04c0.02-0.01,0.03-0.01,0.05-0.02
			c0.01-0.01,0.02-0.01,0.04-0.01c0.07-0.02,0.15-0.04,0.22-0.05c0.04-0.01,0.09-0.01,0.14-0.02c0.03,0,0.06-0.01,0.09-0.01
			c0.09-0.01,0.17-0.01,0.26,0c0.04,0,0.07,0.01,0.11,0.01c0.03,0,0.06,0.01,0.08,0.01c0.03,0,0.07,0.01,0.1,0.01
			c0.12,0.02,0.24,0.04,0.36,0.08c0,0,0.01,0,0.02,0c0.04,0.01,0.08,0.03,0.12,0.04c0.12,0.04,0.24,0.07,0.36,0.12
			c0.01,0.01,0.03,0.01,0.04,0.02c0.2,0.09,0.41,0.19,0.62,0.31c0.21,0.12,0.42,0.26,0.63,0.42c0.06,0.04,0.12,0.09,0.18,0.13
			c0.18,0.13,0.35,0.28,0.53,0.43c0.04,0.04,0.09,0.07,0.13,0.11c0.19,0.17,0.38,0.34,0.57,0.53c0.02,0.02,0.04,0.04,0.06,0.07
			c0.27,0.27,0.55,0.57,0.83,0.88l0,0c0.05,0.06,0.1,0.12,0.15,0.18c0.2,0.24,0.4,0.48,0.6,0.73c0.01,0.01,0.01,0.02,0.01,0.02
			c0.22,0.28,0.44,0.58,0.65,0.88c0.02,0.03,0.04,0.05,0.06,0.08h0c0.23,0.33,0.45,0.66,0.68,1.01c0.01,0.01,0.02,0.03,0.02,0.04
			c0.06,0.09,0.11,0.19,0.17,0.28c0.15,0.25,0.31,0.5,0.46,0.75c0.03,0.05,0.06,0.1,0.08,0.14c0.01,0,0.01-0.01,0.02-0.01
			c0.21-0.12,0.42-0.22,0.64-0.31c0.01,0,0.01-0.01,0.02-0.01c0.05-0.02,0.1-0.04,0.16-0.06c0.15-0.06,0.3-0.11,0.45-0.16
			c0.02-0.01,0.05-0.01,0.07-0.02c0.07-0.02,0.15-0.03,0.22-0.05c0.11-0.02,0.21-0.05,0.32-0.07c0.05-0.01,0.1-0.01,0.15-0.02
			c0.08-0.01,0.16-0.02,0.24-0.03c0.07-0.01,0.14-0.02,0.21-0.03c0.09-0.01,0.17,0,0.26,0c0.07,0,0.15,0,0.22,0
			c0.04,0,0.08,0,0.12,0c0.14,0.01,0.29,0.02,0.43,0.04c0.05,0.01,0.1,0.01,0.14,0.02c0.01,0,0.03,0,0.04,0
			c0.21,0.03,0.42,0.08,0.64,0.14c0.01,0,0.02,0,0.02,0.01c0.11,0.03,0.23,0.08,0.35,0.12c0.12,0.04,0.24,0.07,0.36,0.12
			c0,0,0.01,0.01,0.02,0.01c0.25,0.1,0.49,0.22,0.73,0.36c0.23,0.13,0.46,0.29,0.68,0.45c0.07,0.05,0.13,0.11,0.2,0.16
			c0.16,0.13,0.32,0.27,0.47,0.41c0.04,0.04,0.08,0.07,0.13,0.11c0.03,0.04,0.07,0.08,0.11,0.12c0.06,0.06,0.12,0.12,0.18,0.19
			c0.05,0.06,0.1,0.11,0.15,0.16c0.09,0.1,0.17,0.21,0.26,0.31c0.02,0.02,0.03,0.05,0.05,0.07c0.09,0.11,0.18,0.23,0.26,0.35
			c0.06,0.08,0.12,0.17,0.18,0.26c0.01,0.02,0.02,0.03,0.03,0.05c0.01,0.01,0.02,0.03,0.03,0.04c0.07,0.11,0.14,0.23,0.21,0.34
			c0.07,0.11,0.13,0.23,0.2,0.35c0,0,0,0.01,0,0.01c0,0.01,0,0.01,0.01,0.02c0.06,0.11,0.12,0.22,0.17,0.34
			c0.06,0.13,0.12,0.26,0.18,0.39c0.01,0.01,0.01,0.03,0.02,0.04c0.01,0.02,0.02,0.04,0.03,0.07c0.04,0.1,0.09,0.21,0.13,0.32
			c0.06,0.15,0.12,0.31,0.17,0.47l0,0c0,0,0,0,0,0.01c0.06,0.19,0.12,0.38,0.17,0.56c0.02,0.06,0.03,0.12,0.04,0.18
			c0.02,0.09,0.04,0.18,0.07,0.28c0.02,0.08,0.04,0.16,0.06,0.25c0.02,0.07,0.02,0.15,0.04,0.22c0.03,0.18,0.06,0.35,0.09,0.53
			c0.01,0.08,0.03,0.15,0.04,0.23c0.01,0.06,0.01,0.12,0.02,0.18c0.02,0.21,0.04,0.42,0.05,0.63c0.01,0.12,0.02,0.24,0.02,0.36
			c0.01,0.25,0.01,0.5,0,0.75c0,0.08,0,0.16,0,0.24c-0.02,0.33-0.05,0.66-0.09,0.98c-0.01,0.09-0.03,0.17-0.04,0.26
			c-0.03,0.24-0.08,0.48-0.13,0.71c-0.02,0.12-0.06,0.23-0.09,0.35c-0.05,0.2-0.1,0.4-0.17,0.6c-0.04,0.12-0.08,0.24-0.12,0.36
			c-0.07,0.19-0.14,0.38-0.22,0.57c-0.05,0.11-0.09,0.22-0.14,0.33c-0.09,0.2-0.19,0.39-0.29,0.58c-0.05,0.09-0.1,0.19-0.15,0.27
			c-0.16,0.27-0.34,0.54-0.52,0.79c-1.31,1.76-3.03,3.84-4.8,4.86l-3.55,2.06c1.76-1.02,3.49-3.1,4.8-4.86
			c0.19-0.25,0.36-0.52,0.52-0.79c0.05-0.09,0.1-0.18,0.15-0.28c0.11-0.19,0.2-0.38,0.29-0.57c0.05-0.11,0.1-0.22,0.14-0.34
			c0.08-0.18,0.15-0.38,0.22-0.57c0.04-0.12,0.08-0.24,0.12-0.36c0.06-0.2,0.11-0.4,0.17-0.6c0.03-0.12,0.06-0.23,0.08-0.35
			c0.05-0.23,0.09-0.47,0.13-0.71c0.01-0.09,0.03-0.17,0.04-0.26c0.04-0.33,0.07-0.65,0.09-0.98c0-0.08,0-0.16,0-0.24
			c0.01-0.25,0.01-0.5,0-0.75c0-0.12-0.01-0.24-0.02-0.36c-0.01-0.21-0.03-0.42-0.05-0.64c-0.01-0.13-0.03-0.27-0.05-0.4
			c-0.02-0.18-0.06-0.36-0.09-0.53c-0.03-0.16-0.06-0.31-0.1-0.47c-0.02-0.09-0.04-0.18-0.06-0.27c-0.07-0.25-0.14-0.5-0.22-0.74
			c0,0,0,0,0,0c-0.09-0.27-0.19-0.53-0.3-0.79c-0.01-0.02-0.02-0.04-0.02-0.07c-0.11-0.26-0.24-0.52-0.37-0.77
			c0,0-0.01-0.01-0.01-0.01c-0.14-0.25-0.28-0.5-0.44-0.74c-0.01-0.01-0.02-0.03-0.03-0.04c-0.15-0.23-0.32-0.46-0.49-0.68
			c-0.13-0.17-0.27-0.32-0.41-0.47c-0.06-0.06-0.12-0.13-0.18-0.19c-0.08-0.08-0.15-0.15-0.23-0.22c-0.16-0.15-0.31-0.28-0.48-0.41
			c-0.06-0.05-0.13-0.11-0.2-0.16c-0.22-0.17-0.45-0.32-0.68-0.46c-0.24-0.14-0.49-0.26-0.73-0.36c-0.13-0.05-0.25-0.09-0.38-0.13
			c-0.12-0.04-0.23-0.09-0.35-0.12c-0.23-0.06-0.46-0.11-0.69-0.15c-0.05-0.01-0.1-0.01-0.15-0.02c-0.18-0.02-0.36-0.03-0.54-0.04
			c-0.08,0-0.16,0-0.24,0c-0.15,0-0.3,0.01-0.45,0.02c-0.08,0.01-0.17,0.02-0.25,0.03c-0.15,0.02-0.31,0.06-0.46,0.09
			c-0.08,0.02-0.15,0.03-0.23,0.05c-0.18,0.05-0.35,0.11-0.53,0.18c-0.05,0.02-0.11,0.03-0.16,0.05c-0.23,0.1-0.46,0.21-0.69,0.33
			c-0.17-0.29-0.34-0.57-0.52-0.85c-0.06-0.11-0.13-0.22-0.19-0.32c-0.23-0.36-0.46-0.71-0.7-1.05c-0.02-0.03-0.04-0.05-0.06-0.08
			c-0.22-0.31-0.44-0.62-0.67-0.91c-0.19-0.25-0.39-0.48-0.58-0.71c-0.06-0.06-0.11-0.14-0.17-0.2c-0.28-0.32-0.55-0.61-0.83-0.89
			c-0.21-0.21-0.42-0.41-0.63-0.6c-0.04-0.04-0.08-0.07-0.12-0.11c-0.18-0.15-0.36-0.3-0.54-0.43c-0.06-0.05-0.11-0.09-0.18-0.13
			c-0.21-0.15-0.43-0.3-0.63-0.42c-0.21-0.12-0.42-0.22-0.62-0.31c-0.14-0.06-0.27-0.1-0.41-0.15
			C326.55,95.51,326.51,95.49,326.47,95.48z"/>
		<g>
			<path class="st56" d="M327.62,95.97c-0.78-0.45-1.52-0.67-2.18-0.59c-2.91,0.31-3.08,6.11-0.37,12.95
				c2.14,5.41,5.44,13.02,8.16,14.59c0.05,0.03,0.1,0.05,0.14,0.08c0.05,0.03,0.1,0.06,0.14,0.09c2.74,1.58,6.06-2.21,8.23-5.13
				c2.74-3.69,2.61-9.67-0.3-13.33c-0.66-0.83-1.39-1.46-2.17-1.91c-1.87-1.08-4-1.1-5.84-0.05
				C331.61,99.5,329.49,97.05,327.62,95.97z"/>
		</g>
	</g>
	<g>
		<path class="st57" d="M194.43,69.77c-0.17-0.04-0.33-0.07-0.48-0.09c-0.03,0-0.06-0.01-0.08-0.01c-0.16-0.01-0.32-0.02-0.47,0
			c-0.14,0.02-0.27,0.04-0.4,0.08c-0.02,0.01-0.03,0.01-0.05,0.02c-0.12,0.04-0.24,0.09-0.34,0.16l3.55-2.07
			c0.01,0,0.02-0.01,0.03-0.01c0.06-0.04,0.13-0.07,0.2-0.1c0.04-0.02,0.08-0.03,0.12-0.04c0.02-0.01,0.03-0.01,0.05-0.02
			c0.01,0,0.02-0.01,0.04-0.01c0.07-0.02,0.15-0.04,0.22-0.05c0.05-0.01,0.1-0.02,0.14-0.02c0.03-0.01,0.06-0.01,0.1-0.01
			c0.08-0.01,0.17-0.01,0.26,0c0.04,0,0.07,0.01,0.11,0.01c0.03,0,0.05,0,0.08,0.01c0.04,0,0.07,0.01,0.1,0.01
			c0.12,0.02,0.24,0.04,0.36,0.08c0,0,0.01,0,0.02,0c0.04,0.01,0.08,0.03,0.12,0.04c0.12,0.04,0.24,0.07,0.36,0.12
			c0.01,0.01,0.03,0.01,0.04,0.02c0.2,0.09,0.41,0.19,0.62,0.31c0.21,0.12,0.42,0.26,0.63,0.42c0.06,0.04,0.12,0.09,0.18,0.13
			c0.18,0.13,0.35,0.27,0.53,0.43c0.05,0.04,0.09,0.07,0.13,0.11c0.19,0.17,0.37,0.34,0.56,0.53c0.02,0.02,0.04,0.04,0.06,0.07
			c0.28,0.28,0.55,0.57,0.83,0.88c0,0,0,0,0,0c0.05,0.06,0.1,0.12,0.15,0.18c0.2,0.24,0.4,0.48,0.6,0.73c0,0.01,0.01,0.02,0.02,0.02
			c0.22,0.28,0.43,0.58,0.65,0.88c0.02,0.03,0.04,0.05,0.06,0.08l0,0c0.23,0.33,0.45,0.66,0.68,1.01c0.01,0.01,0.02,0.02,0.03,0.04
			c0.05,0.09,0.11,0.19,0.17,0.28c0.15,0.25,0.31,0.49,0.46,0.75c0.02,0.04,0.05,0.1,0.08,0.14c0.01,0,0.02-0.01,0.03-0.01
			c0.21-0.12,0.43-0.22,0.64-0.31c0.01,0,0.01,0,0.02-0.01c0.05-0.02,0.1-0.04,0.16-0.06c0.15-0.06,0.3-0.12,0.45-0.16
			c0.02-0.01,0.05-0.01,0.07-0.02c0.07-0.02,0.15-0.03,0.22-0.05c0.11-0.02,0.21-0.05,0.32-0.07c0.05-0.01,0.1-0.01,0.15-0.02
			c0.08-0.01,0.16-0.02,0.24-0.03c0.07-0.01,0.14-0.02,0.22-0.02c0.09,0,0.17,0,0.25,0c0.07,0,0.15,0,0.22,0c0.04,0,0.08,0,0.12,0
			c0.14,0.01,0.28,0.02,0.43,0.04c0.05,0.01,0.1,0.01,0.14,0.02c0.01,0,0.02,0,0.04,0c0.21,0.03,0.42,0.08,0.63,0.13
			c0.01,0,0.02,0.01,0.02,0.01c0.12,0.03,0.23,0.08,0.35,0.12c0.12,0.04,0.24,0.07,0.36,0.12c0.01,0,0.01,0.01,0.02,0.01
			c0.25,0.1,0.49,0.22,0.73,0.36c0.23,0.13,0.46,0.29,0.68,0.46c0.07,0.05,0.13,0.11,0.2,0.16c0.16,0.13,0.32,0.27,0.47,0.41
			c0.04,0.04,0.09,0.07,0.12,0.11c0.04,0.04,0.07,0.08,0.11,0.12c0.06,0.06,0.12,0.12,0.18,0.19c0.05,0.06,0.1,0.11,0.15,0.16
			c0.09,0.1,0.18,0.21,0.26,0.31c0.02,0.02,0.04,0.05,0.05,0.07c0.09,0.11,0.17,0.23,0.26,0.35c0.06,0.09,0.12,0.17,0.18,0.26
			c0.01,0.02,0.02,0.03,0.03,0.05c0.01,0.01,0.02,0.03,0.03,0.04c0.07,0.11,0.14,0.23,0.21,0.34c0.06,0.11,0.13,0.23,0.19,0.35
			c0,0,0,0.01,0.01,0.01c0,0,0.01,0.01,0.01,0.02c0.06,0.11,0.12,0.22,0.17,0.34c0.06,0.13,0.12,0.26,0.18,0.39
			c0,0.01,0.01,0.03,0.02,0.04c0.01,0.02,0.02,0.04,0.02,0.07c0.05,0.11,0.09,0.21,0.13,0.32c0.06,0.15,0.11,0.31,0.17,0.47l0,0
			c0,0,0,0,0,0c0.06,0.19,0.12,0.38,0.17,0.56c0.01,0.06,0.03,0.12,0.04,0.18c0.02,0.09,0.05,0.18,0.07,0.28
			c0.02,0.08,0.04,0.17,0.06,0.25c0.01,0.07,0.02,0.15,0.04,0.22c0.04,0.18,0.06,0.35,0.09,0.53c0.01,0.08,0.03,0.15,0.04,0.23
			c0.01,0.06,0.01,0.12,0.01,0.18c0.02,0.21,0.04,0.42,0.05,0.63c0.01,0.12,0.02,0.24,0.02,0.36c0.01,0.25,0.01,0.5,0,0.75
			c0,0.08,0,0.16,0,0.24c-0.02,0.33-0.05,0.66-0.09,0.98c-0.01,0.09-0.03,0.17-0.04,0.26c-0.03,0.24-0.08,0.48-0.13,0.71
			c-0.02,0.12-0.06,0.23-0.08,0.35c-0.05,0.2-0.11,0.4-0.17,0.6c-0.04,0.12-0.08,0.24-0.12,0.36c-0.07,0.19-0.14,0.38-0.22,0.57
			c-0.05,0.11-0.09,0.23-0.14,0.34c-0.09,0.2-0.19,0.39-0.29,0.58c-0.05,0.09-0.1,0.19-0.15,0.27c-0.16,0.27-0.33,0.54-0.52,0.79
			c-1.31,1.76-3.03,3.84-4.8,4.86l-3.55,2.06c1.77-1.03,3.49-3.1,4.8-4.86c0.19-0.25,0.36-0.52,0.52-0.79
			c0.05-0.09,0.1-0.19,0.15-0.28c0.1-0.19,0.2-0.38,0.29-0.57c0.05-0.11,0.1-0.22,0.14-0.34c0.08-0.19,0.15-0.38,0.22-0.57
			c0.04-0.12,0.08-0.24,0.12-0.36c0.06-0.2,0.12-0.4,0.17-0.6c0.03-0.12,0.06-0.24,0.08-0.35c0.05-0.23,0.09-0.47,0.13-0.71
			c0.01-0.09,0.03-0.18,0.04-0.26c0.04-0.33,0.07-0.66,0.09-0.98c0-0.08,0-0.16,0-0.24c0.01-0.25,0.01-0.5,0-0.75
			c0-0.12-0.02-0.24-0.02-0.36c-0.02-0.21-0.03-0.42-0.06-0.64c-0.01-0.13-0.03-0.27-0.05-0.4c-0.03-0.18-0.06-0.36-0.09-0.54
			c-0.03-0.15-0.06-0.31-0.1-0.47c-0.02-0.09-0.04-0.18-0.07-0.27c-0.06-0.25-0.13-0.5-0.21-0.74c0,0,0,0,0,0
			c-0.09-0.27-0.19-0.53-0.3-0.79c-0.01-0.02-0.02-0.04-0.03-0.07c-0.11-0.26-0.23-0.52-0.36-0.77c-0.01,0-0.01-0.01-0.01-0.02
			c-0.13-0.25-0.28-0.5-0.43-0.74c-0.01-0.01-0.02-0.03-0.03-0.04c-0.15-0.23-0.32-0.46-0.49-0.69c-0.13-0.17-0.27-0.32-0.41-0.47
			c-0.06-0.06-0.11-0.13-0.18-0.19c-0.08-0.08-0.15-0.15-0.23-0.22c-0.15-0.15-0.31-0.28-0.47-0.41c-0.07-0.05-0.13-0.11-0.2-0.16
			c-0.22-0.17-0.45-0.32-0.68-0.46c-0.24-0.14-0.48-0.26-0.74-0.36c-0.12-0.05-0.26-0.09-0.38-0.13c-0.11-0.04-0.23-0.09-0.35-0.12
			c-0.23-0.06-0.46-0.11-0.7-0.15c-0.05-0.01-0.1-0.01-0.15-0.02c-0.18-0.02-0.36-0.04-0.53-0.04c-0.08,0-0.16,0-0.24,0
			c-0.15,0-0.3,0.01-0.45,0.03c-0.09,0.01-0.17,0.02-0.25,0.03c-0.15,0.02-0.3,0.06-0.46,0.09c-0.08,0.02-0.15,0.03-0.23,0.05
			c-0.18,0.05-0.35,0.11-0.53,0.18c-0.05,0.02-0.1,0.03-0.15,0.05c-0.23,0.1-0.46,0.21-0.69,0.34c-0.17-0.29-0.34-0.57-0.52-0.85
			c-0.07-0.11-0.13-0.22-0.2-0.32c-0.23-0.36-0.46-0.71-0.7-1.05c-0.01-0.03-0.04-0.05-0.06-0.08c-0.22-0.31-0.44-0.62-0.67-0.9
			c-0.19-0.25-0.38-0.48-0.58-0.71c-0.06-0.07-0.11-0.14-0.17-0.21c-0.28-0.32-0.55-0.61-0.83-0.88c-0.21-0.21-0.42-0.41-0.63-0.6
			c-0.04-0.04-0.08-0.07-0.12-0.1c-0.18-0.16-0.36-0.3-0.54-0.44c-0.06-0.04-0.12-0.09-0.18-0.13c-0.21-0.15-0.43-0.3-0.63-0.42
			c-0.21-0.12-0.42-0.22-0.62-0.31c-0.14-0.06-0.27-0.1-0.4-0.15C194.51,69.81,194.47,69.79,194.43,69.77z"/>
		<g>
			<g>
				<path class="st58" d="M195.58,70.27c-0.79-0.45-1.52-0.67-2.18-0.6c-2.91,0.31-3.09,6.11-0.37,12.95
					c2.15,5.41,5.44,13.02,8.17,14.59c0.05,0.03,0.1,0.05,0.14,0.08c0.05,0.03,0.1,0.06,0.15,0.09c2.73,1.58,6.06-2.21,8.22-5.13
					c2.74-3.69,2.61-9.67-0.3-13.34c-0.65-0.82-1.39-1.46-2.17-1.91c-1.88-1.08-4-1.09-5.84-0.05
					C199.57,73.79,197.45,71.35,195.58,70.27z"/>
			</g>
		</g>
	</g>
</g>
</svg>
