<svg id="Layer_1" enable-background="new 0 0 256 256" height="512" viewBox="0 0 256 256" width="512" xmlns="http://www.w3.org/2000/svg"><g><g fill="#846f75"><path d="m117.631 107.635 17.919-13.116c1.114-.815 1.356-2.379.541-3.494-.817-1.115-2.381-1.355-3.494-.541l-17.921 13.118c-6.976-8.307-17.43-13.6-29.101-13.6-20.953 0-37.999 17.046-37.999 37.999s17.046 37.999 37.999 37.999c20.952 0 37.998-17.046 37.998-37.999.001-7.491-2.186-14.475-5.942-20.366zm-32.055 53.364c-18.195 0-32.999-14.803-32.999-32.999s14.804-32.999 32.999-32.999 32.998 14.803 32.998 32.999-14.803 32.999-32.998 32.999z"/><path d="m170.424 103.894c20.953 0 37.999-17.046 37.999-37.998 0-20.953-17.046-37.999-37.999-37.999-20.952 0-37.998 17.046-37.998 37.999 0 20.952 17.046 37.998 37.998 37.998zm0-70.997c18.195 0 32.999 14.803 32.999 32.999s-14.804 32.998-32.999 32.998-32.998-14.803-32.998-32.998 14.803-32.999 32.998-32.999z"/><path d="m170.424 152.106c-11.671 0-22.125 5.293-29.101 13.6l-18.772-13.741c-1.113-.815-2.677-.574-3.494.541-.815 1.114-.573 2.678.541 3.494l18.771 13.74c-3.756 5.891-5.943 12.875-5.943 20.365 0 20.953 17.046 37.999 37.998 37.999 20.953 0 37.999-17.046 37.999-37.999s-17.046-37.999-37.999-37.999zm0 70.997c-18.195 0-32.998-14.803-32.998-32.999s14.803-32.998 32.998-32.998 32.999 14.803 32.999 32.998-14.804 32.999-32.999 32.999z"/></g><g fill="#a58bc9"><path d="m100.717 147.706h-30.225c-1.381 0-2.5-1.119-2.5-2.5v-14.019c0-5.166 3.41-9.55 8.097-11.021-.989-1.671-1.535-3.605-1.535-5.633 0-6.093 4.957-11.05 11.051-11.05s11.051 4.957 11.051 11.05c0 2.027-.546 3.962-1.535 5.633 4.687 1.471 8.097 5.855 8.097 11.021v14.019c-.001 1.381-1.12 2.5-2.501 2.5zm-27.725-5h25.225v-11.519c0-3.61-2.938-6.548-6.548-6.548h-2.154c-1.154 0-2.158-.79-2.43-1.911-.271-1.121.259-2.283 1.285-2.812 2.026-1.043 3.285-3.106 3.285-5.383 0-3.336-2.715-6.05-6.051-6.05s-6.051 2.714-6.051 6.05c0 2.277 1.259 4.34 3.285 5.383 1.026.528 1.557 1.69 1.285 2.812-.271 1.122-1.275 1.911-2.43 1.911h-2.153c-3.61 0-6.548 2.938-6.548 6.548z"/><path d="m185.508 85.491h-30.225c-1.381 0-2.5-1.119-2.5-2.5v-14.019c0-5.166 3.41-9.55 8.097-11.021-.989-1.67-1.535-3.605-1.535-5.632 0-6.093 4.957-11.05 11.051-11.05s11.051 4.957 11.051 11.05c0 2.027-.546 3.962-1.535 5.632 4.687 1.471 8.097 5.855 8.097 11.021v14.019c-.001 1.381-1.12 2.5-2.501 2.5zm-27.725-5h25.225v-11.519c0-3.61-2.938-6.547-6.548-6.547h-2.154c-1.154 0-2.158-.79-2.43-1.911-.271-1.121.259-2.283 1.285-2.812 2.026-1.043 3.285-3.106 3.285-5.383 0-3.336-2.715-6.05-6.051-6.05s-6.051 2.714-6.051 6.05c0 2.277 1.259 4.34 3.285 5.383 1.026.528 1.557 1.69 1.285 2.812-.271 1.122-1.275 1.911-2.43 1.911h-2.154c-3.61 0-6.548 2.937-6.548 6.547v11.519z"/><path d="m185.508 210.862h-30.225c-1.381 0-2.5-1.119-2.5-2.5v-14.019c0-5.166 3.41-9.55 8.097-11.021-.989-1.671-1.535-3.605-1.535-5.633 0-6.093 4.957-11.05 11.051-11.05s11.051 4.957 11.051 11.05c0 2.027-.546 3.962-1.535 5.633 4.687 1.471 8.097 5.855 8.097 11.021v14.019c-.001 1.381-1.12 2.5-2.501 2.5zm-27.725-5h25.225v-11.519c0-3.61-2.938-6.548-6.548-6.548h-2.154c-1.154 0-2.158-.79-2.43-1.911-.271-1.121.259-2.283 1.285-2.812 2.026-1.043 3.285-3.106 3.285-5.383 0-3.336-2.715-6.05-6.051-6.05s-6.051 2.714-6.051 6.05c0 2.277 1.259 4.34 3.285 5.383 1.026.528 1.557 1.69 1.285 2.812-.271 1.122-1.275 1.911-2.43 1.911h-2.154c-3.61 0-6.548 2.938-6.548 6.548v11.519z"/></g></g></svg>